<?xml version="1.0" standalone="no"?>
<!DOCTYPE svg PUBLIC "-//W3C//DTD SVG 1.1//EN" "http://www.w3.org/Graphics/SVG/1.1/DTD/svg11.dtd" >
<svg xmlns="http://www.w3.org/2000/svg">
<metadata></metadata>
<defs>
<font id="webfontwebfont" horiz-adv-x="1228" >
<font-face units-per-em="2048" ascent="1583" descent="-465" />
<missing-glyph horiz-adv-x="409" />
<glyph horiz-adv-x="2048" />
<glyph horiz-adv-x="2048" />
<glyph horiz-adv-x="409" />
<glyph unicode=" "  horiz-adv-x="409" />
<glyph unicode="&#x09;" horiz-adv-x="409" />
<glyph unicode="&#xa0;" horiz-adv-x="409" />
<glyph unicode="!" horiz-adv-x="634" d="M117 197q0 74 55 131q59 61 154 61q82 0 139 -61q53 -57 53 -131q0 -84 -53 -146q-55 -63 -139 -63q-94 0 -154 63q-55 59 -55 146zM154 553v881h327v-881h-327z" />
<glyph unicode="&#x22;" horiz-adv-x="921" d="M102 901v533h308v-533h-308zM512 901v533h307v-533h-307z" />
<glyph unicode="#" horiz-adv-x="1523" d="M82 338v266h237l84 225h-321v267h420l135 362l237 -86l-102 -276h242l135 362l237 -82l-104 -280h160v-267h-258l-84 -225h342v-266h-441l-133 -363l-235 84l102 279h-246l-135 -363l-237 82l104 281h-139zM588 604h246l81 225h-243z" />
<glyph unicode="$" d="M143 211l187 223q119 -152 307 -151q115 0 115 110q-1 70 -95 127q20 -12 -204 107q-299 156 -299 417q0 131 86 238q86 109 231 152v184h307v-174q178 -33 281 -144l-176 -245q-102 96 -217 96q-164 0 -164 -107q0 -76 94 -135q2 -2 205 -102q299 -147 299 -410 q0 -152 -88 -260q-86 -106 -234 -143v-199h-307v199q-254 55 -328 217z" />
<glyph unicode="%" horiz-adv-x="1935" d="M61 1077q0 175 121 279q121 102 312 102q190 0 311 -102q121 -104 121 -279q0 -174 -121 -280q-121 -104 -311 -105q-190 0 -312 105q-121 106 -121 280zM348 1077q1 -139 146 -139t145 139q0 135 -145 135t-146 -135zM369 96l1017 1362l173 -129l-1014 -1354zM1010 360 q-1 175 120 279q121 102 312 102q190 0 311 -102q121 -104 121 -279q0 -174 -121 -280q-121 -104 -311 -105q-190 0 -312 105q-121 106 -120 280zM1296 360q1 -139 146 -139t145 139q0 135 -145 136q-145 0 -146 -136z" />
<glyph unicode="&#x26;" horiz-adv-x="1560" d="M102 389q0 164 84 277q59 80 213 188q-141 98 -141 279q0 150 113 241q102 84 252 84t254 -84q113 -92 112 -241q0 -197 -158 -281l207 -277q76 166 76 347h305q0 -344 -196 -592l256 -330h-381l-92 113q-150 -137 -402 -138q-227 0 -366 119q-135 113 -136 295zM451 453 q0 -68 45 -119q49 -51 118 -51q144 -1 207 75l-221 320q-150 -127 -149 -225zM545 1133q0 -78 78 -78q80 0 79 78q0 33 -24 57q-23 23 -55 22q-78 0 -78 -79z" />
<glyph unicode="'" horiz-adv-x="512" d="M102 901v533h308v-533h-308z" />
<glyph unicode="(" horiz-adv-x="690" d="M82 461q0 508 416 882l190 -167q-299 -305 -299 -715q0 -426 301 -715l-194 -168q-414 356 -414 883z" />
<glyph unicode=")" horiz-adv-x="690" d="M0 -254q301 289 301 715q0 410 -299 715l191 167q416 -375 415 -882q0 -526 -413 -883z" />
<glyph unicode="*" horiz-adv-x="1056" d="M82 801q0 61 43 106q43 43 104 43t107 -43q43 -45 43 -106t-43 -105q-45 -43 -107 -43q-61 0 -104 43t-43 105zM82 1141q0 61 43 106q43 43 104 43t107 -43q43 -45 43 -106t-43 -105q-45 -43 -107 -43q-61 0 -104 43t-43 105zM377 625q0 61 43 106q43 43 104 43t107 -43 q43 -45 43 -106t-43 -105q-45 -43 -107 -43q-61 0 -104 43t-43 105zM381 1307q0 61 43 106q43 43 104 43t107 -43q43 -45 43 -106t-43 -105q-45 -43 -107 -43q-61 0 -104 43t-43 105zM678 801q0 61 43 106q43 43 104 43t107 -43q43 -45 43 -106t-43 -105q-45 -43 -107 -43 q-61 0 -104 43t-43 105zM678 1141q0 61 43 106q43 43 104 43t107 -43q43 -45 43 -106t-43 -105q-45 -43 -107 -43q-61 0 -104 43t-43 105z" />
<glyph unicode="+" d="M129 604v266h340v351h287v-351h344v-266h-344v-354h-287v354h-340z" />
<glyph unicode="," horiz-adv-x="575" d="M82 166q0 86 51 137q51 53 148 53q98 0 157 -73q55 -72 56 -185q0 -303 -293 -393l-84 141q82 35 119 80q47 55 40 88q-14 -14 -63 -14q-51 0 -90 47q-41 49 -41 119z" />
<glyph unicode="-" horiz-adv-x="745" d="M102 420v287h541v-287h-541z" />
<glyph unicode="." horiz-adv-x="565" d="M82 197q0 74 55 131q59 61 154 61q82 0 139 -61q53 -57 53 -131q0 -84 -53 -146q-55 -63 -139 -63q-94 0 -154 63q-55 59 -55 146z" />
<glyph unicode="/" horiz-adv-x="782" d="M-61 -338l669 1796l236 -88l-668 -1796z" />
<glyph unicode="0" horiz-adv-x="1114" d="M61 717q0 344 123 534q129 199 373 199t373 -199q123 -190 123 -534t-121 -535q-127 -199 -371 -198q-246 0 -375 198q-125 193 -125 535zM389 717q0 -447 172 -447q88 0 125 99q39 100 39 348t-41 350q-37 96 -127 96q-88 0 -127 -100q-41 -104 -41 -346z" />
<glyph unicode="1" horiz-adv-x="815" d="M20 1151l390 283h221v-1434h-307v997l-144 -100z" />
<glyph unicode="2" horiz-adv-x="1069" d="M61 0v246q297 291 363 368q186 223 186 387q0 141 -131 142q-102 0 -157 -154l-256 117q35 158 147 248q119 96 303 96q199 0 315 -117q106 -109 107 -270q0 -408 -479 -776h528v-287h-926z" />
<glyph unicode="3" horiz-adv-x="1083" d="M20 213l170 227q137 -158 283 -157q180 0 180 139q0 158 -243 158h-91v307h82q197 0 197 143q0 121 -131 121q-143 0 -248 -129l-168 221q133 215 445 215q190 0 309 -98q121 -100 121 -268q0 -238 -213 -336v-6q268 -53 268 -340q0 -199 -141 -318q-135 -117 -346 -117 q-335 0 -474 238z" />
<glyph unicode="4" horiz-adv-x="1187" d="M20 307v230l512 897h353l-469 -820h256v308h307v-308h168v-307h-168v-307h-307v307h-652z" />
<glyph unicode="5" horiz-adv-x="1048" d="M20 168l173 235q102 -121 260 -120q82 0 135 51q51 49 51 129q0 90 -68 145q-72 59 -196 60q-168 0 -246 -37l98 803h709v-308h-438l-29 -182h49q193 0 318 -123q131 -131 131 -344q0 -233 -152 -371q-143 -131 -371 -131q-289 0 -424 193z" />
<glyph unicode="6" horiz-adv-x="1155" d="M82 508q0 362 240 641q207 238 473 309l125 -231q-348 -119 -474 -412q84 78 252 78q160 0 275 -119q121 -127 121 -317q0 -225 -154 -361q-137 -121 -330 -121q-236 0 -383 156q-145 152 -145 377zM410 506q0 -103 53 -162q53 -61 149 -61q76 0 117 49q37 41 37 102 q0 172 -174 172q-113 0 -182 -100z" />
<glyph unicode="7" horiz-adv-x="1044" d="M41 1126v308h942v-209l-485 -1225h-336l454 1126h-575z" />
<glyph unicode="8" horiz-adv-x="1239" d="M102 371q0 266 220 362v6q-184 100 -185 340q0 166 139 275q137 104 342 104t343 -104q141 -109 141 -275q0 -238 -205 -338v-6q100 -27 166 -110q74 -94 74 -228q0 -199 -146 -311q-141 -111 -370 -111q-228 1 -371 107q-147 109 -148 289zM430 432q0 -150 188 -149 q195 0 191 149q-2 152 -174 152h-25q-74 0 -125 -37q-55 -43 -55 -115zM465 1024q0 -53 35 -90q39 -43 108 -43h27q68 0 106 43q33 37 33 90q0 127 -158 127q-152 0 -151 -127z" />
<glyph unicode="9" horiz-adv-x="1144" d="M41 967q0 225 158 366q143 125 336 125q240 0 385 -151q143 -152 143 -402q0 -403 -221 -657q-205 -238 -533 -273l-100 244q387 84 489 379q-84 -78 -223 -78q-178 0 -305 125q-129 129 -129 322zM369 989q0 -76 49 -127q51 -55 135 -55q113 0 182 100q0 104 -53 172 q-55 72 -150 72q-76 0 -122 -53q-41 -47 -41 -109z" />
<glyph unicode=":" horiz-adv-x="647" d="M123 197q0 74 55 131q59 61 154 61q82 0 139 -61q53 -57 53 -131q0 -84 -53 -146q-55 -63 -139 -63q-94 0 -154 63q-55 59 -55 146zM123 754q0 74 55 131q59 61 154 61q82 0 139 -61q53 -57 53 -131q0 -84 -53 -146q-55 -63 -139 -63q-94 0 -154 63q-55 59 -55 146z" />
<glyph unicode=";" horiz-adv-x="661" d="M123 754q0 74 55 131q59 61 154 61q82 0 139 -61q53 -57 53 -131q0 -84 -53 -146q-55 -63 -139 -63q-94 0 -154 63q-55 59 -55 146zM127 166q0 86 51 137q51 53 148 53q98 0 157 -73q55 -72 56 -185q0 -303 -293 -393l-84 141q82 35 119 80q47 55 41 88q-14 -14 -64 -14 q-51 0 -90 47q-41 49 -41 119z" />
<glyph unicode="&#x3c;" d="M82 676v131l1003 561v-332l-581 -295l581 -299v-331z" />
<glyph unicode="=" d="M129 399v267h971v-267h-971zM129 809v266h971v-266h-971z" />
<glyph unicode="&#x3e;" d="M143 111v331l582 299l-582 295v332l1004 -561v-131z" />
<glyph unicode="?" horiz-adv-x="985" d="M82 1247q131 211 414 211q205 0 329 -108q119 -102 119 -258q0 -219 -186 -379q-109 -94 -123 -111q-51 -59 -43 -127h-279q-27 186 133 316q98 80 115 98q53 59 53 135q0 49 -39 88q-41 39 -96 39q-131 0 -217 -111zM260 197q0 74 55 131q59 61 154 61q82 0 139 -61 q53 -57 54 -131q0 -84 -54 -146q-55 -63 -139 -63q-94 0 -154 63q-55 59 -55 146z" />
<glyph unicode="@" horiz-adv-x="2019" d="M102 461q0 383 265 645q268 262 663 262q383 0 631 -217q256 -225 256 -586q0 -221 -115 -379q-123 -170 -329 -186h-308v47q-92 -72 -219 -72q-207 0 -330 136q-121 131 -120 350q0 205 149 344q152 141 389 141q254 0 439 -115v-544h38q47 0 82 67q37 78 37 211 q0 215 -155 361q-166 156 -445 155q-270 0 -448 -157q-193 -170 -193 -463q0 -272 193 -451q184 -170 448 -170q117 0 221 25l11 -285q-119 -27 -232 -26q-401 0 -663 253q-264 256 -265 654zM823 446q0 -88 51 -137q49 -47 127 -47q92 0 164 68v297q-70 33 -133 32 q-209 0 -209 -213z" />
<glyph unicode="A" horiz-adv-x="1484" d="M0 0l596 1434h293l596 -1434h-350l-119 301h-567l-119 -301h-330zM571 608h322l-160 406z" />
<glyph unicode="B" horiz-adv-x="1263" d="M184 4v1426q240 12 434 12q244 0 369 -105q113 -92 113 -252q0 -213 -164 -319v-4q205 -76 205 -328q0 -217 -156 -334q-142 -108 -385 -108h-4q-285 0 -412 12zM512 311q45 -12 111 -12q190 0 190 152q0 129 -174 129h-127v-269zM512 866h109q151 0 151 138q0 63 -49 98 q-43 33 -109 33q-28 -1 -102 -9v-260z" />
<glyph unicode="C" horiz-adv-x="1341" d="M82 717q0 324 190 524q203 217 559 217q285 0 439 -149l-146 -246q-145 88 -293 88q-174 0 -282 -111q-119 -119 -119 -323q0 -190 121 -311q121 -123 313 -123q172 0 312 104l124 -246q-147 -166 -466 -166q-334 0 -543 203q-209 205 -209 539z" />
<glyph unicode="D" horiz-adv-x="1523" d="M184 0v1434l453 6q406 0 618 -213q186 -188 187 -498q0 -317 -205 -516q-223 -217 -616 -217zM512 307q43 -4 119 -4q215 0 338 111q125 113 125 315q0 193 -131 301q-123 102 -330 103q-80 -1 -121 -7v-819z" />
<glyph unicode="E" horiz-adv-x="1177" d="M184 0v1434h850v-308h-522v-252h461v-307h-461v-260h543v-307h-871z" />
<glyph unicode="F" horiz-adv-x="1095" d="M184 0v1434h830v-308h-502v-303h440v-307h-440v-516h-328z" />
<glyph unicode="G" horiz-adv-x="1488" d="M82 717q0 317 194 524q203 217 533 217q281 0 469 -149l-137 -265q-100 106 -293 107q-186 0 -297 -107q-121 -115 -121 -327q0 -199 117 -316q114 -118 304 -118h3q150 0 225 71v156h-305v307h612v-639q-203 -203 -536 -203q-362 0 -567 203q-201 199 -201 539z" />
<glyph unicode="H" horiz-adv-x="1546" d="M184 0v1434h328v-549h522v549h328v-1434h-328v578h-522v-578h-328z" />
<glyph unicode="I" horiz-adv-x="737" d="M205 0v1434h327v-1434h-327z" />
<glyph unicode="J" horiz-adv-x="833" d="M0 76l106 250q57 -43 119 -43q96 0 97 127v1024h327v-1084q0 -375 -379 -375q-193 0 -270 101z" />
<glyph unicode="K" horiz-adv-x="1417" d="M184 0v1434h328v-625l469 625h393l-538 -662l581 -772h-416l-489 682v-682h-328z" />
<glyph unicode="L" horiz-adv-x="1116" d="M184 0v1434h328v-1127h584v-307h-912z" />
<glyph unicode="M" horiz-adv-x="1867" d="M184 0v1434h330l442 -605l418 605h309v-1434h-327v913l-400 -559h-47l-397 553v-907h-328z" />
<glyph unicode="N" horiz-adv-x="1617" d="M184 0v1434h262l680 -865v865h308v-1434h-263l-679 860v-860h-308z" />
<glyph unicode="O" horiz-adv-x="1687" d="M82 717q0 317 209 526q215 215 553 215q334 0 545 -198q217 -207 217 -543q0 -324 -217 -533q-215 -209 -545 -209q-334 0 -545 199q-217 207 -217 543zM430 717q0 -184 121 -309t293 -125q197 0 309 127q104 117 104 307q0 193 -120 315q-117 119 -293 119 q-180 0 -295 -119q-119 -121 -119 -315z" />
<glyph unicode="P" horiz-adv-x="1284" d="M184 0v1434l439 4q305 0 452 -146q127 -123 127 -329q0 -201 -141 -336q-150 -145 -389 -146q-109 0 -160 6v-487h-328zM512 799q78 -10 150 -11q192 0 192 175q0 167 -197 167h-2l-143 -4v-327z" />
<glyph unicode="Q" horiz-adv-x="1687" d="M82 717q0 317 209 526q215 215 553 215q334 0 545 -198q217 -207 217 -543q0 -291 -179 -492l195 -225h-379l-45 51q-162 -76 -354 -76q-334 0 -545 199q-217 207 -217 543zM430 717q0 -184 121 -309t293 -125q76 0 139 18l-113 131l215 193l119 -140q53 100 53 232 q0 193 -120 315q-117 119 -293 119q-180 0 -295 -119q-119 -121 -119 -315z" />
<glyph unicode="R" horiz-adv-x="1378" d="M184 0v1434l488 4q530 0 530 -459q0 -293 -241 -414l417 -565h-397l-348 502h-121v-502h-328zM512 809h119q223 0 223 166q0 155 -196 155h-3l-143 -4v-317z" />
<glyph unicode="S" horiz-adv-x="1140" d="M82 211l186 223q118 -151 305 -151h2q135 0 136 110q-1 70 -95 127l2 -1q0 -1 -206 108q-299 156 -299 417q0 172 125 291q129 123 337 123q274 0 422 -158l-176 -245q-102 96 -217 96q-143 0 -143 -107q0 -76 94 -135q2 -2 205 -102q299 -147 299 -410q0 -184 -141 -305 q-139 -117 -351 -117q-154 0 -288 60q-147 68 -197 176z" />
<glyph unicode="T" d="M20 1126v308h1188v-308h-430v-1126h-327v1126h-431z" />
<glyph unicode="U" horiz-adv-x="1538" d="M164 606v828h328v-758q0 -393 296 -393q258 0 259 374v777h327v-842q0 -309 -178 -473q-156 -143 -408 -144q-285 0 -450 158q-174 166 -174 473z" />
<glyph unicode="V" horiz-adv-x="1343" d="M-20 1434h350l360 -947l344 947h330l-559 -1434h-252z" />
<glyph unicode="W" horiz-adv-x="2048" d="M0 1434h371l241 -906l269 906h329l277 -906l246 906h315l-403 -1434h-314l-299 922l-295 -922h-313z" />
<glyph unicode="X" horiz-adv-x="1380" d="M0 0l477 731l-454 703h385l290 -461l279 461h385l-459 -703l477 -731h-385l-307 481l-303 -481h-385z" />
<glyph unicode="Y" horiz-adv-x="1339" d="M0 1434h375l307 -543l303 543h354l-508 -850v-584h-327v584z" />
<glyph unicode="Z" horiz-adv-x="1331" d="M82 0v229l709 897h-668v308h1106v-230l-711 -897h731v-307h-1167z" />
<glyph unicode="[" horiz-adv-x="778" d="M123 -410v1741h614v-287h-307v-1167h307v-287h-614z" />
<glyph unicode="\" horiz-adv-x="782" d="M-61 1370l235 88l670 -1796l-238 -88z" />
<glyph unicode="]" horiz-adv-x="778" d="M41 -123h307v1167h-307v287h614v-1741h-614v287z" />
<glyph unicode="^" horiz-adv-x="1069" d="M41 922l389 528h213l385 -528h-332l-161 225l-162 -225h-332z" />
<glyph unicode="_" horiz-adv-x="768" d="M0 -102h768v-308h-768v308z" />
<glyph unicode="`" horiz-adv-x="700" d="M123 1325l244 182l211 -348l-183 -129z" />
<glyph unicode="a" horiz-adv-x="952" d="M61 279q0 150 99 231q88 74 233 74q115 0 180 -52v17q0 141 -127 141q-90 0 -235 -57l-76 223q147 90 342 90q383 0 383 -391v-555h-266v84q-68 -96 -242 -96q-129 0 -207 75q-84 78 -84 216zM369 309q0 -65 85 -65h3q81 0 116 47v57q-43 31 -116 31q-88 0 -88 -70z" />
<glyph unicode="b" horiz-adv-x="1120" d="M113 74v1360h307v-537q94 49 203 49q201 0 319 -133q117 -129 117 -338q0 -229 -144 -362q-143 -137 -395 -138q-229 0 -407 99zM420 289q49 -27 115 -27q86 0 139 49q57 53 57 146q0 100 -57 155q-51 47 -125 47q-70 0 -129 -59v-311z" />
<glyph unicode="c" horiz-adv-x="993" d="M61 461q0 205 136 344q137 141 352 141q252 0 377 -131l-142 -242q-86 86 -196 86q-78 0 -135 -49q-63 -57 -64 -149q0 -88 66 -146q59 -53 137 -53q113 0 209 103l143 -226q-119 -164 -377 -164q-229 0 -368 134q-137 133 -138 352z" />
<glyph unicode="d" horiz-adv-x="1140" d="M61 449q0 219 142 358q141 139 366 139q90 0 152 -28v516h307v-1434h-307v76q-96 -92 -234 -92q-195 0 -311 129q-115 125 -115 336zM389 459q0 -88 51 -142q47 -47 111 -47q96 0 170 68v283q-66 38 -134 38h-3q-80 0 -133 -49q-61 -55 -62 -151z" />
<glyph unicode="e" horiz-adv-x="1048" d="M61 461q0 207 138 344q139 141 362 141q184 0 313 -119q133 -125 134 -315q0 -92 -19 -154h-610q41 -127 215 -127q137 0 242 66l84 -217q-139 -104 -359 -105q-227 0 -362 134q-137 133 -138 352zM369 563h331q0 51 -36 88q-43 39 -113 39q-137 0 -182 -127z" />
<glyph unicode="f" horiz-adv-x="655" d="M113 0v1071q0 188 92 289q86 98 244 98q184 0 268 -90l-103 -233q-34 36 -106 36h-4q-84 0 -84 -118v-131h194v-287h-194v-635h-307z" />
<glyph unicode="g" horiz-adv-x="1032" d="M0 -119q0 228 305 291q-12 25 -12 51q0 31 14 53q-227 90 -227 316q0 145 108 246q114 108 296 108h3q135 0 236 -61l289 57l10 -246l-137 -26q10 -45 10 -78q0 -137 -100 -234q-106 -102 -275 -112q-2 -8 -2 -23q0 -16 6 -35q201 -6 322 -79q133 -82 133 -228 q0 -152 -143 -233q-131 -74 -347 -74q-217 0 -346 72q-143 80 -143 235zM287 -119q-1 -61 202 -61t203 61q0 63 -203 64q-203 0 -202 -64zM367 592q-1 -100 120 -100t121 100q0 108 -119 108h-2q-55 0 -90 -32q-31 -31 -30 -76z" />
<glyph unicode="h" horiz-adv-x="1114" d="M113 0v1434h307v-576q90 80 227 80q375 0 375 -397v-541h-307v502q0 68 -41 108q-41 41 -107 41q-88 0 -147 -59v-592h-307z" />
<glyph unicode="i" horiz-adv-x="585" d="M113 1239q0 80 55 127q53 47 131 47q70 0 121 -47q53 -49 53 -127q0 -86 -53 -139q-51 -47 -121 -47q-80 0 -131 47q-55 51 -55 139zM139 0v922h307v-922h-307z" />
<glyph unicode="j" horiz-adv-x="575" d="M-72 -356l80 243q45 -26 87 -26h3q57 0 58 100v961h307v-990q0 -358 -289 -358q-172 0 -246 70zM131 1239q0 80 55 127q53 47 131 47q70 0 121 -47q53 -49 54 -127q0 -86 -54 -139q-51 -47 -121 -47q-80 0 -131 47q-55 51 -55 139z" />
<glyph unicode="k" horiz-adv-x="1099" d="M113 0v1434h307v-912l252 400h385l-299 -416l342 -506h-393l-287 440v-440h-307z" />
<glyph unicode="l" horiz-adv-x="632" d="M113 264v1170h307v-1053q0 -119 51 -119q29 0 80 33l61 -234q-104 -86 -270 -86q-229 0 -229 289z" />
<glyph unicode="m" horiz-adv-x="1634" d="M113 0v922h307v-86q102 102 272 102q203 0 262 -135q111 135 297 135q291 0 291 -336v-602h-307v520q0 131 -115 131q-104 0 -139 -80v-571h-307v522q0 129 -109 129q-94 0 -145 -73v-578h-307z" />
<glyph unicode="n" horiz-adv-x="1114" d="M113 0v922h307v-72q92 88 227 88q375 0 375 -389v-549h-307v496q0 155 -150 155h-2q-80 0 -143 -63v-588h-307z" />
<glyph unicode="o" horiz-adv-x="1146" d="M61 461q1 211 138 346q143 139 374 139t375 -139q137 -135 137 -346t-137 -346q-143 -139 -375 -140q-231 0 -374 140q-137 135 -138 346zM389 461q0 -87 53 -144q51 -55 131 -55t132 53q53 53 53 146q0 88 -53 143t-132 55q-78 0 -129 -53q-55 -55 -55 -145z" />
<glyph unicode="p" horiz-adv-x="1148" d="M113 -410v1332h307v-70q94 94 256 94q184 0 299 -133q113 -131 112 -338q0 -215 -135 -354q-139 -145 -360 -146q-104 0 -172 29v-414h-307zM420 297q59 -35 143 -35q96 0 148 62q49 55 49 145q0 84 -47 135q-49 55 -133 55h-2q-85 0 -158 -81v-281z" />
<glyph unicode="q" horiz-adv-x="1150" d="M61 461q0 205 150 344q152 141 389 141q254 0 438 -115v-1241h-307v428q-94 -43 -184 -43q-223 0 -357 134q-129 133 -129 352zM389 446q0 -76 53 -129q57 -55 146 -55q88 0 143 53v312q-68 32 -129 32h-4q-209 0 -209 -213z" />
<glyph unicode="r" horiz-adv-x="753" d="M113 0v922h307v-74q61 90 190 90q96 0 144 -35l-109 -287q-59 35 -113 35q-76 0 -112 -65v-586h-307z" />
<glyph unicode="s" horiz-adv-x="940" d="M61 145l146 201q119 -115 295 -115q70 0 69 41q1 31 -75 54l-78 18q-55 14 -90 27q-244 78 -244 274q0 143 106 225q98 76 254 76q244 0 387 -125l-114 -217q-125 86 -254 86q-72 0 -72 -41q0 -29 76 -51l168 -43q244 -76 244 -268q0 -141 -107 -226q-109 -86 -291 -86 q-135 0 -266 62q-117 51 -154 108z" />
<glyph unicode="t" horiz-adv-x="749" d="M92 350v828h307v-256h256v-287h-256v-270q0 -102 60 -103q66 0 137 53l92 -235q-121 -104 -309 -105q-287 0 -287 375z" />
<glyph unicode="u" horiz-adv-x="1085" d="M92 342v580h307v-514q0 -145 119 -146q80 0 148 84v576h307v-922h-307v92q-92 -117 -265 -117q-127 0 -213 88q-96 100 -96 279z" />
<glyph unicode="v" horiz-adv-x="995" d="M-20 922h364l119 -291q41 -98 61 -213q20 117 60 215l108 289h324l-387 -922h-232z" />
<glyph unicode="w" horiz-adv-x="1507" d="M0 922h330l112 -422q6 -23 21 -117q12 78 26 117l140 422h274l144 -420q10 -27 28 -121q12 88 23 125l100 416h309l-284 -922h-281l-164 426q-4 10 -26 104q-8 -61 -29 -108l-164 -422h-264z" />
<glyph unicode="x" horiz-adv-x="1099" d="M20 0l306 467l-285 455h375l141 -263l148 263h354l-287 -439l307 -483h-374l-160 291l-170 -291h-355z" />
<glyph unicode="y" horiz-adv-x="1056" d="M0 922h371l157 -422q12 -33 35 -127q8 82 23 129l121 420h350l-359 -922q-98 -242 -178 -328q-76 -82 -184 -82q-117 0 -219 86l98 232q49 -33 88 -33q57 0 88 76l21 49z" />
<glyph unicode="z" horiz-adv-x="1013" d="M82 0v225l422 410h-391v287h819v-226l-424 -409h414v-287h-840z" />
<glyph unicode="{" horiz-adv-x="798" d="M41 328v266q72 0 121 45q63 57 63 180v174q0 176 80 256q84 82 283 82h170v-287h-92q-78 0 -105 -30q-29 -33 -29 -129v-189q0 -213 -153 -233q154 -18 153 -234v-188q0 -90 31 -127q33 -37 115 -37h80v-287h-195q-338 0 -338 322v215q0 205 -184 201z" />
<glyph unicode="|" horiz-adv-x="716" d="M205 0v1434h307v-1434h-307z" />
<glyph unicode="}" horiz-adv-x="798" d="M41 -123h80q82 0 115 37q31 37 30 127v188q0 215 154 234q-154 20 -154 233v189q0 96 -28 129q-27 31 -105 30h-92v287h170q199 0 283 -82q80 -80 79 -256v-174q0 -123 66 -180q47 -45 119 -45v-266q-184 4 -185 -201v-215q0 -322 -337 -322h-195v287z" />
<glyph unicode="~" d="M68 748q152 184 321 184q86 0 244 -68t235 -67q98 0 174 92l119 -211q-156 -147 -295 -148q-86 0 -237 68q-154 68 -219 68q-96 0 -211 -115z" />
<glyph unicode="&#xa1;" horiz-adv-x="634" d="M117 737q0 84 53 146q55 63 139 63q94 0 154 -63q55 -59 55 -146q0 -74 -55 -131q-59 -61 -154 -61q-82 0 -139 61q-53 57 -53 131zM154 381h327v-881h-327v881z" />
<glyph unicode="&#xa2;" d="M174 461q0 162 88 287q90 127 240 174v231h307v-221q145 -29 229 -117l-141 -242q-86 86 -197 86q-78 0 -135 -49q-63 -57 -63 -149q0 -88 65 -146q59 -53 138 -53q113 0 208 103l144 -226q-86 -119 -248 -149v-236h-307v246q-328 98 -328 461z" />
<glyph unicode="&#xa3;" d="M49 231q94 117 213 154q63 82 78 137h-215v246h164q-102 186 -103 287q0 176 138 286q135 109 346 109q254 0 411 -168l-168 -242q-117 102 -229 103q-150 0 -149 -113q0 -55 43 -127q61 -102 73 -135h281v-246h-283q-33 -76 -102 -147q252 -76 301 -76q125 0 217 88 l133 -240q-145 -156 -354 -155q-78 0 -234 53q-154 53 -233 53q-98 0 -207 -112z" />
<glyph unicode="&#xa4;" d="M49 322l144 143q-57 102 -58 231q1 128 60 234l-146 147l189 189l149 -152q98 47 227 47q121 0 226 -47l151 150l189 -189l-146 -145q59 -106 60 -234q0 -123 -58 -231l144 -141l-189 -189l-147 146q-104 -49 -230 -50q-127 0 -229 50l-147 -148zM422 696q0 -86 51 -141 q53 -57 141 -57q193 0 193 198q0 199 -193 199q-88 0 -139 -53q-53 -53 -53 -146z" />
<glyph unicode="&#xa5;" d="M6 1434h375l246 -543l241 543h355l-318 -605h195v-245h-324v-123h324v-246h-324v-215h-327v215h-320v246h320v123h-320v245h190z" />
<glyph unicode="&#xa6;" horiz-adv-x="716" d="M205 0v532h307v-532h-307zM205 901v533h307v-533h-307z" />
<glyph unicode="&#xa7;" horiz-adv-x="1073" d="M102 510q1 256 226 348q-123 92 -123 279q0 125 92 206q100 90 278 91q193 0 310 -154l-183 -205q-66 72 -114 72q-29 0 -53 -23q-23 -23 -23 -51q0 -104 117 -184q166 -25 258 -131q84 -100 84 -248q0 -256 -228 -348q121 -94 121 -275q0 -125 -92 -206 q-100 -90 -278 -91q-193 0 -310 154l183 205q66 -72 114 -72q29 0 54 23q23 23 22 51q0 106 -119 180q-164 25 -252 133q-84 100 -84 246zM410 510q0 -119 127 -119t127 119q0 121 -127 121q-66 0 -101 -43q-27 -33 -26 -78z" />
<glyph unicode="&#xa8;" horiz-adv-x="964" d="M123 1206q0 76 49 123q47 43 119 43q61 0 106 -43q49 -47 49 -123q0 -82 -49 -131q-43 -45 -106 -45q-72 0 -119 45q-49 49 -49 131zM518 1206q0 76 51 123q47 43 117 43q63 0 109 -43q47 -47 47 -123q0 -82 -47 -131q-45 -45 -109 -45q-72 0 -117 45q-51 49 -51 131z " />
<glyph unicode="&#xa9;" horiz-adv-x="2084" d="M143 453q0 379 260 639t639 260t639 -260t261 -639q0 -379 -261 -639q-260 -260 -639 -260t-639 260t-260 639zM410 451q0 -263 180 -445q182 -186 454 -186q268 0 451 186q180 182 180 445q0 266 -180 448q-180 186 -451 186q-272 0 -454 -186q-180 -182 -180 -448z M551 461q0 205 135 344q137 141 352 141q252 0 377 -131l-141 -242q-86 86 -197 86q-78 0 -135 -49q-63 -57 -63 -149q0 -88 65 -146q59 -53 137 -53q113 0 209 103l144 -226q-119 -164 -377 -164q-229 0 -369 134q-137 133 -137 352z" />
<glyph unicode="&#xaa;" horiz-adv-x="952" d="M82 817q0 252 270 252q119 0 207 -35q-18 88 -121 88q-115 0 -176 -32l-104 180q143 78 334 78q135 0 229 -70q109 -80 108 -223v-461h-266v78q-80 -90 -254 -90q-102 0 -166 69q-61 66 -61 166zM369 846q0 -39 82 -39q55 0 112 29v30q-66 18 -114 19q-80 0 -80 -39z" />
<glyph unicode="&#xab;" horiz-adv-x="1212" d="M61 508v8l420 481l199 -178l-264 -307l264 -311l-209 -174zM532 508v8l420 481l199 -178l-264 -307l264 -311l-209 -174z" />
<glyph unicode="&#xac;" d="M88 604v266h1053v-534h-267v268h-786z" />
<glyph unicode="&#xad;" horiz-adv-x="745" d="M102 420v287h541v-287h-541z" />
<glyph unicode="&#xae;" horiz-adv-x="1449" d="M82 1020q0 265 188 453q188 186 459 186q264 0 453 -186q186 -188 186 -453q0 -270 -186 -461q-188 -188 -453 -188q-272 0 -459 188q-188 188 -188 461zM328 1016q-1 -164 116 -281t281 -117t281 117t116 281q0 164 -116 280q-117 117 -281 117t-281 -117t-116 -280z M473 737v574h279q246 0 245 -201q0 -123 -94 -170l88 -203h-233l-47 156h-33v-156h-205zM678 1036h39q76 0 76 70q0 61 -72 61h-43v-131z" />
<glyph unicode="&#xaf;" horiz-adv-x="847" d="M123 1065v246h602v-246h-602z" />
<glyph unicode="&#xb0;" horiz-adv-x="901" d="M82 1163q-1 161 108 267q104 106 256 106q158 0 265 -98q109 -102 108 -260q0 -156 -108 -269q-111 -111 -265 -110q-152 0 -256 104q-109 104 -108 260zM348 1167q0 -40 31 -71t72 -31t71 31q31 31 31 71q0 41 -31 72t-71 31q-41 0 -72 -31t-31 -72z" />
<glyph unicode="&#xb1;" d="M129 297v266h971v-266h-971zM129 809v266h340v350h287v-350h344v-266h-344v-170h-287v170h-340z" />
<glyph unicode="&#xb2;" horiz-adv-x="770" d="M51 717v192q352 197 352 260q0 47 -53 48q-59 0 -78 -89l-219 80q41 233 328 234q147 0 227 -64q80 -61 80 -170q0 -168 -293 -266h324v-225h-668z" />
<glyph unicode="&#xb3;" horiz-adv-x="761" d="M20 862l152 144q53 -88 152 -88q90 0 90 36q0 31 -92 31h-56v184h51q74 0 74 37q0 27 -59 27q-86 0 -164 -74l-125 146q106 143 344 143q127 0 207 -49q84 -51 84 -135q0 -135 -164 -166v-2q186 -8 186 -166q0 -102 -100 -168q-94 -59 -229 -60q-257 0 -351 160z" />
<glyph unicode="&#xb4;" horiz-adv-x="696" d="M123 1159l211 352l239 -182l-268 -299z" />
<glyph unicode="&#xb6;" horiz-adv-x="1067" d="M61 985q1 203 138 330q131 119 331 119h496v-287h-192v-1090q0 -483 -428 -483q-193 0 -302 117l121 221q68 -51 158 -51q143 0 143 209v469q-186 2 -319 118q-145 127 -146 328z" />
<glyph unicode="&#xb7;" horiz-adv-x="409" d="M4 627q0 74 55 131q59 61 154 61q82 0 139 -61q53 -57 54 -131q0 -84 -54 -146q-55 -63 -139 -63q-94 0 -154 63q-55 59 -55 146z" />
<glyph unicode="&#xb8;" horiz-adv-x="827" d="M123 -330l90 142q57 -57 139 -58q45 0 45 27q0 35 -51 35h-12v184h153v-53q217 -18 218 -185q0 -88 -78 -139q-80 -53 -232 -53q-162 0 -272 100z" />
<glyph unicode="&#xb9;" horiz-adv-x="583" d="M20 1266l248 164h193v-713h-266v409l-78 -41z" />
<glyph unicode="&#xba;" horiz-adv-x="1069" d="M102 967q0 174 121 278q121 102 312 103q190 0 311 -103q121 -104 121 -278t-121 -281q-121 -104 -311 -104t-312 104q-121 106 -121 281zM389 967q1 -140 146 -140t145 140q0 135 -145 135t-146 -135z" />
<glyph unicode="&#xbb;" horiz-adv-x="1212" d="M61 201l265 311l-265 307l199 178l420 -481v-8l-410 -481zM532 201l265 311l-265 307l199 178l420 -481v-8l-410 -481z" />
<glyph unicode="&#xbc;" horiz-adv-x="1460" d="M20 1266l248 164h193v-713h-266v409l-78 -41zM82 96l1018 1362l172 -129l-1014 -1354zM676 125v178l289 414h252l-275 -387h125v131h246v-131h106v-205h-106v-125h-246v125h-391z" />
<glyph unicode="&#xbd;" horiz-adv-x="1497" d="M20 1266l248 164h193v-713h-266v409l-78 -41zM82 96l1018 1362l172 -129l-1014 -1354zM748 0v193q352 197 352 260q0 47 -53 47q-59 0 -78 -88l-219 80q41 233 327 233q147 0 228 -63q80 -61 79 -170q0 -168 -292 -267h323v-225h-667z" />
<glyph unicode="&#xbe;" horiz-adv-x="1603" d="M41 862l152 144q53 -88 151 -88q90 0 90 36q0 31 -92 31h-55v184h51q74 0 74 37q0 27 -60 27q-86 0 -164 -74l-125 146q106 143 345 143q127 0 206 -49q84 -51 84 -135q0 -135 -163 -166v-2q186 -8 186 -166q0 -102 -100 -168q-94 -59 -230 -60q-256 0 -350 160zM246 96 l1018 1362l172 -129l-1014 -1354zM819 125v178l289 414h252l-275 -387h125v131h246v-131h107v-205h-107v-125h-246v125h-391z" />
<glyph unicode="&#xbf;" horiz-adv-x="985" d="M41 -158q0 219 186 379q109 94 123 111q51 59 43 127h279q27 -186 -133 -316q-98 -80 -115 -98q-53 -59 -53 -135q0 -49 39 -88q41 -39 96 -39q131 0 217 111l180 -207q-131 -211 -414 -211q-205 0 -329 108q-119 102 -119 258zM324 737q0 84 53 146q55 63 139 63 q94 0 154 -63q55 -59 55 -146q0 -74 -55 -131q-59 -61 -154 -61q-82 0 -139 61q-53 57 -53 131z" />
<glyph unicode="&#xc0;" horiz-adv-x="1484" d="M0 0l596 1434h293l596 -1434h-350l-119 301h-567l-119 -301h-330zM362 1651l115 264l479 -242l-84 -182zM571 608h322l-160 406z" />
<glyph unicode="&#xc1;" horiz-adv-x="1484" d="M0 0l596 1434h293l596 -1434h-350l-119 301h-567l-119 -301h-330zM526 1673l480 242l114 -264l-510 -160zM571 608h322l-160 406z" />
<glyph unicode="&#xc2;" horiz-adv-x="1484" d="M0 0l596 1434h293l596 -1434h-350l-119 301h-567l-119 -301h-330zM367 1651l364 243h8l377 -239l-119 -174l-262 135l-262 -135zM571 608h322l-160 406z" />
<glyph unicode="&#xc3;" horiz-adv-x="1484" d="M0 0l596 1434h293l596 -1434h-350l-119 301h-567l-119 -301h-330zM356 1720q104 129 256 129q63 0 144 -30q80 -31 133 -31q102 0 160 61l77 -192q-84 -135 -258 -135q-49 0 -135 30q-88 31 -147 31q-68 0 -135 -55zM571 608h322l-160 406z" />
<glyph unicode="&#xc4;" horiz-adv-x="1484" d="M0 0l596 1434h293l596 -1434h-350l-119 301h-567l-119 -301h-330zM311 1714q1 74 60 117q55 43 141 43q76 0 129 -43q57 -45 57 -117q0 -80 -57 -129q-53 -43 -129 -43q-86 0 -141 43q-59 47 -60 129zM571 608h322l-160 406zM784 1714q1 74 60 117q57 43 141 43 q76 0 129 -43q57 -45 57 -117q0 -80 -57 -129q-51 -43 -129 -43q-86 0 -141 43q-59 47 -60 129z" />
<glyph unicode="&#xc5;" horiz-adv-x="1484" d="M0 0l594 1430q-174 59 -174 227q0 121 94 184q84 57 223 57q145 0 232 -57q96 -63 96 -184q0 -166 -176 -225l596 -1432h-350l-119 301h-567l-119 -301h-330zM571 608h322l-160 406zM645 1657q0 -84 96 -84q98 0 99 84q0 78 -99 78q-96 0 -96 -78z" />
<glyph unicode="&#xc6;" horiz-adv-x="1937" d="M-82 0l1030 1434h846v-308h-522v-252h461v-307h-461v-260h543v-307h-871v301h-440l-207 -301h-379zM717 608h227v328z" />
<glyph unicode="&#xc7;" horiz-adv-x="1341" d="M82 717q0 324 190 524q203 217 559 217q285 0 439 -149l-146 -246q-145 88 -293 88q-174 0 -282 -111q-119 -119 -119 -323q0 -190 121 -311q121 -123 313 -123q172 0 312 104l124 -246q-139 -156 -438 -166v-28q238 -18 238 -185q0 -86 -78 -139q-80 -53 -219 -53 q-205 0 -326 108l98 152q76 -76 152 -76q45 0 45 27q0 35 -51 35h-12v168q-285 37 -455 233q-172 199 -172 500z" />
<glyph unicode="&#xc8;" horiz-adv-x="1177" d="M184 0v1434h850v-308h-522v-252h461v-307h-461v-260h543v-307h-871zM240 1651l114 264l480 -242l-84 -182z" />
<glyph unicode="&#xc9;" horiz-adv-x="1177" d="M184 0v1434h850v-308h-522v-252h461v-307h-461v-260h543v-307h-871zM424 1673l479 242l115 -264l-510 -160z" />
<glyph unicode="&#xca;" horiz-adv-x="1177" d="M184 0v1434h850v-308h-522v-252h461v-307h-461v-260h543v-307h-871zM236 1651l364 243h8l377 -239l-119 -174l-262 135l-262 -135z" />
<glyph unicode="&#xcb;" horiz-adv-x="1177" d="M184 0v1434h850v-308h-522v-252h461v-307h-461v-260h543v-307h-871zM188 1714q1 74 60 117q55 43 141 43q76 0 129 -43q57 -45 57 -117q0 -80 -57 -129q-53 -43 -129 -43q-86 0 -141 43q-59 47 -60 129zM662 1714q0 74 59 117q57 43 141 43q76 0 129 -43q57 -45 58 -117 q0 -80 -58 -129q-51 -43 -129 -43q-86 0 -141 43q-59 47 -59 129z" />
<glyph unicode="&#xcc;" horiz-adv-x="737" d="M-27 1651l115 264l479 -242l-84 -182zM205 0v1434h327v-1434h-327z" />
<glyph unicode="&#xcd;" horiz-adv-x="737" d="M178 1673l479 242l115 -264l-510 -160zM205 0v1434h327v-1434h-327z" />
<glyph unicode="&#xce;" horiz-adv-x="737" d="M-6 1651l364 243h9l376 -239l-118 -174l-263 135l-262 -135zM205 0v1434h327v-1434h-327z" />
<glyph unicode="&#xcf;" horiz-adv-x="737" d="M-61 1714q0 74 59 117q55 43 141 43q76 0 129 -43q57 -45 58 -117q0 -80 -58 -129q-53 -43 -129 -43q-86 0 -141 43q-59 47 -59 129zM205 0v1434h327v-1434h-327zM412 1714q0 74 59 117q57 43 141 43q76 0 129 -43q57 -45 58 -117q0 -80 -58 -129q-51 -43 -129 -43 q-86 0 -141 43q-59 47 -59 129z" />
<glyph unicode="&#xd0;" horiz-adv-x="1523" d="M20 569v287h164v578l453 6q406 0 618 -213q186 -188 187 -498q0 -317 -205 -516q-223 -217 -616 -217l-437 4v569h-164zM512 307q43 -4 119 -4q215 0 338 111q125 113 125 315q0 193 -131 301q-123 102 -330 103q-80 -1 -121 -7v-270h336v-287h-336v-262z" />
<glyph unicode="&#xd1;" horiz-adv-x="1617" d="M184 0v1434h262l680 -865v865h308v-1434h-263l-679 860v-860h-308zM440 1720q104 129 256 129q63 0 144 -30q80 -31 133 -31q102 0 160 61l77 -192q-84 -135 -258 -135q-49 0 -135 30q-88 31 -147 31q-68 0 -135 -55z" />
<glyph unicode="&#xd2;" horiz-adv-x="1687" d="M82 717q0 317 209 526q215 215 553 215q334 0 545 -198q217 -207 217 -543q0 -324 -217 -533q-215 -209 -545 -209q-334 0 -545 199q-217 207 -217 543zM430 717q0 -184 121 -309t293 -125q197 0 309 127q104 117 104 307q0 193 -120 315q-117 119 -293 119 q-180 0 -295 -119q-119 -121 -119 -315zM485 1651l115 264l479 -242l-84 -182z" />
<glyph unicode="&#xd3;" horiz-adv-x="1687" d="M82 717q0 317 209 526q215 215 553 215q334 0 545 -198q217 -207 217 -543q0 -324 -217 -533q-215 -209 -545 -209q-334 0 -545 199q-217 207 -217 543zM430 717q0 -184 121 -309t293 -125q197 0 309 127q104 117 104 307q0 193 -120 315q-117 119 -293 119 q-180 0 -295 -119q-119 -121 -119 -315zM670 1673l479 242l115 -264l-510 -160z" />
<glyph unicode="&#xd4;" horiz-adv-x="1687" d="M82 717q0 317 209 526q215 215 553 215q334 0 545 -198q217 -207 217 -543q0 -324 -217 -533q-215 -209 -545 -209q-334 0 -545 199q-217 207 -217 543zM430 717q0 -184 121 -309t293 -125q197 0 309 127q104 117 104 307q0 193 -120 315q-117 119 -293 119 q-180 0 -295 -119q-119 -121 -119 -315zM475 1651l365 243h8l377 -239l-119 -174l-262 135l-262 -135z" />
<glyph unicode="&#xd5;" horiz-adv-x="1687" d="M82 717q0 317 209 526q215 215 553 215q334 0 545 -198q217 -207 217 -543q0 -324 -217 -533q-215 -209 -545 -209q-334 0 -545 199q-217 207 -217 543zM430 717q0 -184 121 -309t293 -125q197 0 309 127q104 117 104 307q0 193 -120 315q-117 119 -293 119 q-180 0 -295 -119q-119 -121 -119 -315zM444 1720q104 129 256 129q63 0 144 -30q80 -31 133 -31q102 0 160 61l77 -192q-84 -135 -258 -135q-49 0 -135 30q-88 31 -147 31q-68 0 -135 -55z" />
<glyph unicode="&#xd6;" horiz-adv-x="1687" d="M82 717q0 317 209 526q215 215 553 215q334 0 545 -198q217 -207 217 -543q0 -324 -217 -533q-215 -209 -545 -209q-334 0 -545 199q-217 207 -217 543zM403 1714q1 74 60 117q55 43 141 43q76 0 129 -43q57 -45 58 -117q0 -80 -58 -129q-53 -43 -129 -43q-86 0 -141 43 q-59 47 -60 129zM430 717q0 -184 121 -309t293 -125q197 0 309 127q104 117 104 307q0 193 -120 315q-117 119 -293 119q-180 0 -295 -119q-119 -121 -119 -315zM877 1714q0 74 59 117q57 43 141 43q76 0 129 -43q57 -45 58 -117q0 -80 -58 -129q-51 -43 -129 -43 q-86 0 -141 43q-59 47 -59 129z" />
<glyph unicode="&#xd7;" d="M176 487l250 250l-248 248l189 189l247 -248l248 248l189 -189l-248 -248l250 -250l-189 -188l-250 250l-249 -250z" />
<glyph unicode="&#xd8;" horiz-adv-x="1687" d="M82 717q0 317 209 526q215 215 553 215q244 0 432 -115l76 74l176 -180l-64 -63q141 -186 142 -457q0 -324 -217 -533q-215 -209 -545 -209q-272 0 -467 136l-82 -80l-176 180l82 80q-119 182 -119 426zM430 717q0 -92 31 -170l573 559q-90 45 -190 45q-180 0 -295 -119 q-119 -121 -119 -315zM621 350q100 -68 223 -67q197 0 309 127q104 117 104 307q0 117 -47 211z" />
<glyph unicode="&#xd9;" horiz-adv-x="1538" d="M164 606v828h328v-758q0 -393 296 -393q258 0 259 374v777h327v-842q0 -309 -178 -473q-156 -143 -408 -144q-285 0 -450 158q-174 166 -174 473zM383 1651l115 264l479 -242l-84 -182z" />
<glyph unicode="&#xda;" horiz-adv-x="1538" d="M164 606v828h328v-758q0 -393 296 -393q258 0 259 374v777h327v-842q0 -309 -178 -473q-156 -143 -408 -144q-285 0 -450 158q-174 166 -174 473zM588 1673l479 242l115 -264l-510 -160z" />
<glyph unicode="&#xdb;" horiz-adv-x="1538" d="M164 606v828h328v-758q0 -393 296 -393q258 0 259 374v777h327v-842q0 -309 -178 -473q-156 -143 -408 -144q-285 0 -450 158q-174 166 -174 473zM391 1651l365 243h8l377 -239l-119 -174l-262 135l-262 -135z" />
<glyph unicode="&#xdc;" horiz-adv-x="1538" d="M164 606v828h328v-758q0 -393 296 -393q258 0 259 374v777h327v-842q0 -309 -178 -473q-156 -143 -408 -144q-285 0 -450 158q-174 166 -174 473zM322 1714q0 74 59 117q55 43 141 43q76 0 129 -43q57 -45 58 -117q0 -80 -58 -129q-53 -43 -129 -43q-86 0 -141 43 q-59 47 -59 129zM795 1714q0 74 59 117q57 43 141 43q76 0 129 -43q57 -45 58 -117q0 -80 -58 -129q-51 -43 -129 -43q-86 0 -141 43q-59 47 -59 129z" />
<glyph unicode="&#xdd;" horiz-adv-x="1339" d="M0 1434h375l307 -543l303 543h354l-508 -850v-584h-327v584zM485 1673l480 242l114 -264l-510 -160z" />
<glyph unicode="&#xde;" horiz-adv-x="1284" d="M184 0v1434h328v-205l111 4q305 0 452 -146q127 -123 127 -329q0 -201 -141 -336q-150 -145 -389 -146q-109 0 -160 7v-283h-328zM512 594q78 -10 150 -10q193 0 192 176q0 166 -227 166q-58 0 -115 -8v-324z" />
<glyph unicode="&#xdf;" horiz-adv-x="1138" d="M102 0v1010q0 449 461 448q164 0 275 -90q109 -88 108 -215q0 -113 -69 -199q-72 -86 -72 -147q0 -70 147 -184q145 -113 146 -291q0 -145 -90 -248q-96 -109 -246 -109q-197 0 -305 109l94 235q70 -57 135 -57q84 0 84 80q0 61 -145 172q-147 111 -148 231q0 129 72 222 q70 92 69 127q0 78 -100 77q-109 0 -108 -184v-987h-308z" />
<glyph unicode="&#xe0;" horiz-adv-x="952" d="M61 279q0 150 99 231q88 74 233 74q115 0 180 -52q8 158 -127 158q-90 0 -235 -57l-76 223q147 90 342 90q383 0 383 -391v-555h-266v84q-68 -96 -242 -96q-129 0 -207 75q-84 78 -84 216zM227 1325l244 182l211 -348l-182 -129zM369 309q0 -66 88 -65q81 0 116 47v57 q-43 31 -116 31q-88 0 -88 -70z" />
<glyph unicode="&#xe1;" horiz-adv-x="952" d="M61 279q0 150 99 231q88 74 233 74q115 0 180 -52q8 158 -127 158q-90 0 -235 -57l-76 223q147 90 342 90q383 0 383 -391v-555h-266v84q-68 -96 -242 -96q-129 0 -207 75q-84 78 -84 216zM295 1159l211 352l239 -182l-268 -299zM369 309q0 -66 88 -65q81 0 116 47v57 q-43 31 -116 31q-88 0 -88 -70z" />
<glyph unicode="&#xe2;" horiz-adv-x="952" d="M61 279q0 150 99 231q88 74 233 74q115 0 180 -52q8 158 -127 158q-90 0 -235 -57l-76 223q147 90 342 90q383 0 383 -391v-555h-266v84q-68 -96 -242 -96q-129 0 -207 75q-84 78 -84 216zM131 1169l340 277h8l338 -279l-143 -180l-201 166l-205 -162zM369 309 q0 -66 88 -65q81 0 116 47v57q-43 31 -116 31q-88 0 -88 -70z" />
<glyph unicode="&#xe3;" horiz-adv-x="952" d="M61 279q0 150 99 231q88 74 233 74q115 0 180 -52q8 158 -127 158q-90 0 -235 -57l-76 223q147 90 342 90q383 0 383 -391v-555h-266v84q-68 -96 -242 -96q-129 0 -207 75q-84 78 -84 216zM90 1200q113 160 270 160q49 0 125 -39q76 -41 117 -41q53 0 135 55l101 -153 q-123 -147 -260 -148q-45 0 -121 41q-76 39 -123 39q-31 0 -121 -51zM369 309q0 -66 88 -65q81 0 116 47v57q-43 31 -116 31q-88 0 -88 -70z" />
<glyph unicode="&#xe4;" horiz-adv-x="952" d="M61 279q0 150 99 231q88 74 233 74q115 0 180 -52q8 158 -127 158q-90 0 -235 -57l-76 223q147 90 342 90q383 0 383 -391v-555h-266v84q-68 -96 -242 -96q-129 0 -207 75q-84 78 -84 216zM137 1206q0 76 49 123q47 43 119 43q61 0 107 -43q49 -47 49 -123 q0 -82 -49 -131q-43 -45 -107 -45q-72 0 -119 45q-49 49 -49 131zM369 309q0 -66 88 -65q81 0 116 47v57q-43 31 -116 31q-88 0 -88 -70zM532 1206q1 76 52 123q47 43 116 43q63 0 109 -43q47 -47 47 -123q0 -82 -47 -131q-45 -45 -109 -45q-72 0 -116 45q-51 49 -52 131z " />
<glyph unicode="&#xe5;" horiz-adv-x="952" d="M61 279q0 150 99 231q88 74 233 74q115 0 180 -52q8 158 -127 158q-90 0 -235 -57l-76 223q147 90 342 90q383 0 383 -391v-555h-266v84q-68 -96 -242 -96q-129 0 -207 75q-84 78 -84 216zM219 1251q0 111 80 187q80 78 201 78q123 0 205 -78q80 -76 79 -187 q0 -109 -79 -184q-82 -76 -205 -76q-121 0 -201 76t-80 184zM369 309q0 -66 88 -65q81 0 116 47v57q-43 31 -116 31q-88 0 -88 -70zM414 1255q0 -100 90 -100q86 0 86 100q0 96 -86 97q-90 0 -90 -97z" />
<glyph unicode="&#xe6;" horiz-adv-x="1519" d="M61 295q0 131 93 209q90 80 239 80q115 0 180 -52q8 72 -28 117q-35 43 -86 43q-96 0 -248 -59l-76 223q154 90 342 90q181 0 271 -78q123 78 284 78q184 0 314 -119q133 -125 133 -315q0 -92 -19 -154h-600v-28q47 -98 205 -99q137 0 242 66l84 -217 q-156 -104 -351 -105q-209 0 -340 103q-139 -98 -294 -98q-344 0 -345 315zM369 309q0 -66 88 -65q57 0 112 41l4 63q-43 31 -116 31q-88 0 -88 -70zM858 604l2 -41h311q-12 129 -159 127q-104 0 -154 -86z" />
<glyph unicode="&#xe7;" horiz-adv-x="993" d="M61 461q0 205 136 344q137 141 352 141q252 0 377 -131l-142 -242q-86 86 -196 86q-78 0 -135 -49q-63 -57 -64 -149q0 -88 66 -146q59 -53 137 -53q113 0 209 103l143 -226q-109 -150 -336 -162v-30q217 -18 217 -185q0 -88 -77 -139q-80 -53 -232 -53q-162 0 -272 100 l90 142q57 -57 139 -58q45 0 45 27q0 35 -51 35h-12v170q-182 31 -287 157q-106 127 -107 318z" />
<glyph unicode="&#xe8;" horiz-adv-x="1048" d="M61 461q0 207 138 344q139 141 362 141q184 0 313 -119q133 -125 134 -315q0 -92 -19 -154h-610q41 -127 215 -127q137 0 242 66l84 -217q-139 -104 -359 -105q-227 0 -362 134q-137 133 -138 352zM319 1325l244 182l211 -348l-182 -129zM369 563h331q0 51 -36 88 q-43 39 -113 39q-137 0 -182 -127z" />
<glyph unicode="&#xe9;" horiz-adv-x="1048" d="M61 461q0 207 138 344q139 141 362 141q184 0 313 -119q133 -125 134 -315q0 -92 -19 -154h-610q41 -127 215 -127q137 0 242 66l84 -217q-139 -104 -359 -105q-227 0 -362 134q-137 133 -138 352zM369 563h331q0 51 -36 88q-43 39 -113 39q-137 0 -182 -127zM387 1159 l211 352l240 -182l-269 -299z" />
<glyph unicode="&#xea;" horiz-adv-x="1048" d="M61 461q0 207 138 344q139 141 362 141q184 0 313 -119q133 -125 134 -315q0 -92 -19 -154h-610q41 -127 215 -127q137 0 242 66l84 -217q-139 -104 -359 -105q-227 0 -362 134q-137 133 -138 352zM203 1169l340 277h8l338 -279l-144 -180l-200 166l-205 -162zM369 563 h331q0 51 -36 88q-43 39 -113 39q-137 0 -182 -127z" />
<glyph unicode="&#xeb;" horiz-adv-x="1048" d="M61 461q0 207 138 344q139 141 362 141q184 0 313 -119q133 -125 134 -315q0 -92 -19 -154h-610q41 -127 215 -127q137 0 242 66l84 -217q-139 -104 -359 -105q-227 0 -362 134q-137 133 -138 352zM195 1206q0 76 49 123q47 43 118 43q61 0 107 -43q49 -47 49 -123 q0 -82 -49 -131q-43 -45 -107 -45q-72 0 -118 45q-49 49 -49 131zM369 563h331q0 51 -36 88q-43 39 -113 39q-137 0 -182 -127zM590 1206q0 76 51 123q47 43 117 43q63 0 108 -43q47 -47 47 -123q0 -82 -47 -131q-45 -45 -108 -45q-72 0 -117 45q-51 49 -51 131z" />
<glyph unicode="&#xec;" horiz-adv-x="585" d="M-29 1325l244 182l211 -348l-182 -129zM139 0v922h307v-922h-307z" />
<glyph unicode="&#xed;" horiz-adv-x="585" d="M100 1159l211 352l240 -182l-268 -299zM139 0v922h307v-922h-307z" />
<glyph unicode="&#xee;" horiz-adv-x="585" d="M-49 1169l340 277h8l338 -279l-143 -180l-201 166l-205 -162zM139 0v922h307v-922h-307z" />
<glyph unicode="&#xef;" horiz-adv-x="585" d="M-66 1206q1 76 50 123q47 43 118 43q61 0 107 -43q49 -47 49 -123q0 -82 -49 -131q-43 -45 -107 -45q-72 0 -118 45q-49 49 -50 131zM139 0v922h307v-922h-307zM330 1206q0 76 51 123q47 43 117 43q63 0 108 -43q47 -47 47 -123q0 -82 -47 -131q-45 -45 -108 -45 q-72 0 -117 45q-51 49 -51 131z" />
<glyph unicode="&#xf0;" horiz-adv-x="1146" d="M61 461q0 211 138 346q143 139 374 139q57 0 111 -24q-25 59 -66 122l-247 -75l-86 274l135 41q-63 61 -146 129l347 45q59 -39 104 -82l205 64l84 -275l-96 -30q168 -289 167 -588q0 -270 -137 -422q-137 -150 -375 -150q-231 0 -374 140q-137 135 -138 346zM389 461 q0 -87 53 -144q51 -55 131 -55q92 0 146 78q53 82 39 219q-45 100 -185 100q-78 0 -129 -53q-55 -55 -55 -145z" />
<glyph unicode="&#xf1;" horiz-adv-x="1114" d="M113 0v922h307v-72q92 88 227 88q375 0 375 -389v-549h-307v496q0 156 -152 155q-80 0 -143 -63v-588h-307zM178 1200q113 160 271 160q49 0 124 -39q76 -41 117 -41q53 0 135 55l101 -153q-123 -147 -260 -148q-45 0 -121 41q-76 39 -123 39q-31 0 -121 -51z" />
<glyph unicode="&#xf2;" horiz-adv-x="1146" d="M61 461q1 211 138 346q143 139 374 139t375 -139q137 -135 137 -346t-137 -346q-143 -139 -375 -140q-231 0 -374 140q-137 135 -138 346zM293 1325l244 182l211 -348l-183 -129zM389 461q0 -87 53 -144q51 -55 131 -55t132 53q53 53 53 146q0 88 -53 143t-132 55 q-78 0 -129 -53q-55 -55 -55 -145z" />
<glyph unicode="&#xf3;" horiz-adv-x="1146" d="M61 461q1 211 138 346q143 139 374 139t375 -139q137 -135 137 -346t-137 -346q-143 -139 -375 -140q-231 0 -374 140q-137 135 -138 346zM389 461q0 -87 53 -144q51 -55 131 -55t132 53q53 53 53 146q0 88 -53 143t-132 55q-78 0 -129 -53q-55 -55 -55 -145zM401 1159 l211 352l240 -182l-268 -299z" />
<glyph unicode="&#xf4;" horiz-adv-x="1146" d="M61 461q1 211 138 346q143 139 374 139t375 -139q137 -135 137 -346t-137 -346q-143 -139 -375 -140q-231 0 -374 140q-137 135 -138 346zM236 1169l339 277h9l338 -279l-144 -180l-200 166l-205 -162zM389 461q0 -87 53 -144q51 -55 131 -55t132 53q53 53 53 146 q0 88 -53 143t-132 55q-78 0 -129 -53q-55 -55 -55 -145z" />
<glyph unicode="&#xf5;" horiz-adv-x="1146" d="M61 461q1 211 138 346q143 139 374 139t375 -139q137 -135 137 -346t-137 -346q-143 -139 -375 -140q-231 0 -374 140q-137 135 -138 346zM195 1200q113 160 270 160q49 0 125 -39q76 -41 117 -41q53 0 135 55l100 -153q-123 -147 -260 -148q-45 0 -121 41 q-76 39 -123 39q-31 0 -121 -51zM389 461q0 -87 53 -144q51 -55 131 -55t132 53q53 53 53 146q0 88 -53 143t-132 55q-78 0 -129 -53q-55 -55 -55 -145z" />
<glyph unicode="&#xf6;" horiz-adv-x="1146" d="M61 461q1 211 138 346q143 139 374 139t375 -139q137 -135 137 -346t-137 -346q-143 -139 -375 -140q-231 0 -374 140q-137 135 -138 346zM231 1206q1 76 50 123q47 43 118 43q61 0 107 -43q49 -47 49 -123q0 -82 -49 -131q-43 -45 -107 -45q-72 0 -118 45 q-49 49 -50 131zM389 461q0 -87 53 -144q51 -55 131 -55t132 53q53 53 53 146q0 88 -53 143t-132 55q-78 0 -129 -53q-55 -55 -55 -145zM627 1206q0 76 51 123q47 43 117 43q63 0 108 -43q47 -47 47 -123q0 -82 -47 -131q-45 -45 -108 -45q-72 0 -117 45q-51 49 -51 131z " />
<glyph unicode="&#xf7;" d="M129 604v266h971v-266h-971zM436 352q0 66 45 115q51 55 133 55q76 0 127 -55q47 -51 47 -115q0 -74 -45 -127q-49 -55 -129 -55q-84 0 -133 55q-45 51 -45 127zM436 1126q0 68 45 117q51 53 133 53q78 0 129 -53q45 -51 45 -117q0 -74 -45 -125q-49 -57 -129 -57 q-84 0 -133 57q-45 51 -45 125z" />
<glyph unicode="&#xf8;" horiz-adv-x="1187" d="M61 461q0 209 148 346q152 139 385 139q178 0 315 -88l70 62l108 -127l-53 -48q92 -125 92 -284q0 -209 -147 -346q-152 -139 -385 -140q-193 0 -326 93l-67 -60l-111 129l55 49q-84 115 -84 275zM389 461q0 -26 6 -55l275 241q-33 12 -76 12q-90 0 -148 -53 q-57 -53 -57 -145zM506 276q35 -14 88 -14q94 0 149 53t56 146q-1 32 -11 67z" />
<glyph unicode="&#xf9;" horiz-adv-x="1085" d="M92 342v580h307v-514q0 -145 119 -146q80 0 148 84v576h307v-922h-307v92q-92 -117 -265 -117q-127 0 -213 88q-96 100 -96 279zM252 1325l244 182l211 -348l-183 -129z" />
<glyph unicode="&#xfa;" horiz-adv-x="1085" d="M92 342v580h307v-514q0 -145 119 -146q80 0 148 84v576h307v-922h-307v92q-92 -117 -265 -117q-127 0 -213 88q-96 100 -96 279zM381 1159l211 352l239 -182l-268 -299z" />
<glyph unicode="&#xfb;" horiz-adv-x="1085" d="M92 342v580h307v-514q0 -145 119 -146q80 0 148 84v576h307v-922h-307v92q-92 -117 -265 -117q-127 0 -213 88q-96 100 -96 279zM201 1169l340 277h8l338 -279l-144 -180l-200 166l-205 -162z" />
<glyph unicode="&#xfc;" horiz-adv-x="1085" d="M92 342v580h307v-514q0 -145 119 -146q80 0 148 84v576h307v-922h-307v92q-92 -117 -265 -117q-127 0 -213 88q-96 100 -96 279zM176 1206q0 76 49 123q47 43 119 43q61 0 107 -43q49 -47 49 -123q0 -82 -49 -131q-43 -45 -107 -45q-72 0 -119 45q-49 49 -49 131z M571 1206q1 76 52 123q47 43 116 43q63 0 109 -43q47 -47 47 -123q0 -82 -47 -131q-45 -45 -109 -45q-72 0 -116 45q-51 49 -52 131z" />
<glyph unicode="&#xfd;" horiz-adv-x="1056" d="M0 922h371l157 -422q12 -33 35 -127q8 82 23 129l121 420h350l-359 -922q-98 -242 -178 -328q-76 -82 -184 -82q-117 0 -219 86l98 232q49 -33 88 -33q57 0 88 76l21 49zM346 1159l211 352l240 -182l-269 -299z" />
<glyph unicode="&#xfe;" horiz-adv-x="1148" d="M113 -410v1844h307v-566q104 78 256 78q184 0 299 -133q113 -131 112 -338q0 -215 -135 -354q-139 -145 -360 -146q-104 0 -172 29v-414h-307zM420 297q59 -35 143 -35q96 0 148 62q49 55 49 145q0 84 -47 135q-49 55 -133 55q-86 1 -160 -81v-281z" />
<glyph unicode="&#xff;" horiz-adv-x="1056" d="M0 922h371l157 -422q12 -33 35 -127q8 82 23 129l121 420h350l-359 -922q-98 -242 -178 -328q-76 -82 -184 -82q-117 0 -219 86l98 232q49 -33 88 -33q57 0 88 76l21 49zM188 1206q1 76 50 123q47 43 118 43q61 0 107 -43q49 -47 49 -123q0 -82 -49 -131 q-43 -45 -107 -45q-72 0 -118 45q-49 49 -50 131zM584 1206q0 76 51 123q47 43 117 43q63 0 108 -43q47 -47 47 -123q0 -82 -47 -131q-45 -45 -108 -45q-72 0 -117 45q-51 49 -51 131z" />
<glyph unicode="&#x100;" horiz-adv-x="1484" d="M0 0l596 1434h293l596 -1434h-350l-119 301h-567l-119 -301h-330zM420 1536v246h643v-246h-643zM571 608h322l-160 406z" />
<glyph unicode="&#x101;" horiz-adv-x="952" d="M61 279q0 150 99 231q88 74 233 74q115 0 180 -52q8 158 -127 158q-90 0 -235 -57l-76 223q147 90 342 90q383 0 383 -391v-555h-266v84q-68 -96 -242 -96q-129 0 -207 75q-84 78 -84 216zM186 1065v246h602v-246h-602zM369 309q0 -66 88 -65q81 0 116 47v57 q-43 31 -116 31q-88 0 -88 -70z" />
<glyph unicode="&#x102;" horiz-adv-x="1484" d="M0 0l596 1434h293l596 -1434h-350l-119 301h-567l-119 -301h-330zM330 1726l131 158q119 -123 293 -123q176 0 286 123l113 -160q-135 -229 -399 -229q-135 0 -260 74q-106 66 -164 157zM571 608h322l-160 406z" />
<glyph unicode="&#x103;" horiz-adv-x="952" d="M61 279q0 150 99 231q88 74 233 74q115 0 180 -52q8 158 -127 158q-90 0 -235 -57l-76 223q147 90 342 90q383 0 383 -391v-555h-266v84q-68 -96 -242 -96q-129 0 -207 75q-84 78 -84 216zM121 1243l135 154q96 -106 215 -107q139 0 225 103l105 -148 q-133 -201 -342 -201q-223 0 -338 199zM369 309q0 -66 88 -65q81 0 116 47v57q-43 31 -116 31q-88 0 -88 -70z" />
<glyph unicode="&#x104;" horiz-adv-x="1484" d="M0 0l596 1434h293l596 -1434h-39q-84 0 -146 -37q-57 -35 -57 -74q0 -53 62 -53q39 0 81 21l93 -185q-66 -82 -246 -82q-129 0 -209 48q-88 51 -88 147q0 143 199 215l-119 301h-567l-119 -301h-330zM571 608h322l-160 406z" />
<glyph unicode="&#x105;" horiz-adv-x="952" d="M61 279q0 150 99 231q88 74 233 74q115 0 180 -52q8 158 -127 158q-90 0 -235 -57l-76 223q147 90 342 90q383 0 383 -391v-555h-18q-78 -4 -133 -39q-51 -35 -52 -72q0 -53 62 -53q39 0 82 21l92 -185q-66 -82 -246 -82q-129 0 -209 48q-88 51 -88 147q0 164 244 229v70 q-68 -96 -242 -96q-129 0 -207 75q-84 78 -84 216zM369 309q0 -66 88 -65q81 0 116 47v57q-43 31 -116 31q-88 0 -88 -70z" />
<glyph unicode="&#x106;" horiz-adv-x="1341" d="M82 717q0 324 190 524q203 217 559 217q285 0 439 -149l-146 -246q-145 88 -293 88q-174 0 -282 -111q-119 -119 -119 -323q0 -190 121 -311q121 -123 313 -123q172 0 312 104l124 -246q-147 -166 -466 -166q-334 0 -543 203q-209 205 -209 539zM588 1673l479 242 l115 -264l-510 -160z" />
<glyph unicode="&#x107;" horiz-adv-x="993" d="M61 461q0 205 136 344q137 141 352 141q252 0 377 -131l-142 -242q-86 86 -196 86q-78 0 -135 -49q-63 -57 -64 -149q0 -88 66 -146q59 -53 137 -53q113 0 209 103l143 -226q-119 -164 -377 -164q-229 0 -368 134q-137 133 -138 352zM367 1159l211 352l239 -182 l-268 -299z" />
<glyph unicode="&#x108;" horiz-adv-x="1341" d="M82 717q0 324 190 524q203 217 559 217q285 0 439 -149l-146 -246q-145 88 -293 88q-174 0 -282 -111q-119 -119 -119 -323q0 -190 121 -311q121 -123 313 -123q172 0 312 104l124 -246q-147 -166 -466 -166q-334 0 -543 203q-209 205 -209 539zM414 1651l364 243h8 l377 -239l-119 -174l-262 135l-262 -135z" />
<glyph unicode="&#x109;" horiz-adv-x="993" d="M61 461q0 205 136 344q137 141 352 141q252 0 377 -131l-142 -242q-86 86 -196 86q-78 0 -135 -49q-63 -57 -64 -149q0 -88 66 -146q59 -53 137 -53q113 0 209 103l143 -226q-119 -164 -377 -164q-229 0 -368 134q-137 133 -138 352zM223 1169l340 277h8l338 -279 l-143 -180l-201 166l-205 -162z" />
<glyph unicode="&#x10a;" horiz-adv-x="1341" d="M82 717q0 324 190 524q203 217 559 217q285 0 439 -149l-146 -246q-145 88 -293 88q-174 0 -282 -111q-119 -119 -119 -323q0 -190 121 -311q121 -123 313 -123q172 0 312 104l124 -246q-147 -166 -466 -166q-334 0 -543 203q-209 205 -209 539zM582 1731q0 84 61 135 q59 49 145 49q80 0 136 -49q61 -53 61 -135q0 -90 -61 -146q-55 -51 -136 -51q-88 0 -145 51q-61 53 -61 146z" />
<glyph unicode="&#x10b;" horiz-adv-x="993" d="M61 461q0 205 136 344q137 141 352 141q252 0 377 -131l-142 -242q-86 86 -196 86q-78 0 -135 -49q-63 -57 -64 -149q0 -88 66 -146q59 -53 137 -53q113 0 209 103l143 -226q-119 -164 -377 -164q-229 0 -368 134q-137 133 -138 352zM369 1239q0 80 55 127q53 47 131 47 q70 0 121 -47q53 -49 53 -127q0 -86 -53 -139q-51 -47 -121 -47q-80 0 -131 47q-55 51 -55 139z" />
<glyph unicode="&#x10c;" horiz-adv-x="1341" d="M82 717q0 324 190 524q203 217 559 217q285 0 439 -149l-146 -246q-145 88 -293 88q-174 0 -282 -111q-119 -119 -119 -323q0 -190 121 -311q121 -123 313 -123q172 0 312 104l124 -246q-147 -166 -466 -166q-334 0 -543 203q-209 205 -209 539zM412 1741l118 174 l263 -156l262 156l106 -170l-364 -244h-9z" />
<glyph unicode="&#x10d;" horiz-adv-x="993" d="M61 461q0 205 136 344q137 141 352 141q252 0 377 -131l-142 -242q-86 86 -196 86q-78 0 -135 -49q-63 -57 -64 -149q0 -88 66 -146q59 -53 137 -53q113 0 209 103l143 -226q-119 -164 -377 -164q-229 0 -368 134q-137 133 -138 352zM197 1278l143 180l201 -166l204 162 l138 -178l-340 -277h-8z" />
<glyph unicode="&#x10e;" horiz-adv-x="1523" d="M184 0v1434l453 6q406 0 618 -213q186 -188 187 -498q0 -317 -205 -516q-223 -217 -616 -217zM309 1741l119 174l262 -156l262 156l107 -170l-365 -244h-8zM512 307q43 -4 119 -4q215 0 338 111q125 113 125 315q0 193 -131 301q-123 102 -330 103q-80 -1 -121 -7v-819z " />
<glyph unicode="&#x10f;" horiz-adv-x="1140" d="M61 449q0 219 142 358q141 139 366 139q90 0 152 -28v516h307v-1434h-307v76q-96 -92 -234 -92q-195 0 -311 129q-115 125 -115 336zM389 459q0 -88 51 -142q47 -47 111 -47q96 0 170 68v283q-68 39 -137 38q-80 0 -133 -49q-61 -55 -62 -151zM1073 1100q88 100 88 231 q0 51 -22 103h299q10 -25 10 -66q0 -268 -231 -397z" />
<glyph unicode="&#x110;" horiz-adv-x="1523" d="M20 569v287h164v578l453 6q406 0 618 -213q186 -188 187 -498q0 -317 -205 -516q-223 -217 -616 -217l-437 4v569h-164zM512 307q43 -4 119 -4q215 0 338 111q125 113 125 315q0 193 -131 301q-123 102 -330 103q-80 -1 -121 -7v-270h336v-287h-336v-262z" />
<glyph unicode="&#x111;" horiz-adv-x="1140" d="M61 449q0 219 142 358q141 139 366 139q90 0 152 -28v120h-213v246h213v150h307v-150h133v-246h-133v-1038h-307v76q-96 -92 -234 -92q-195 0 -311 129q-115 125 -115 336zM389 459q0 -88 51 -142q47 -47 111 -47q96 0 170 68v283q-68 39 -137 38q-80 0 -133 -49 q-61 -55 -62 -151z" />
<glyph unicode="&#x112;" horiz-adv-x="1177" d="M184 0v1434h850v-308h-522v-252h461v-307h-461v-260h543v-307h-871zM287 1536v246h643v-246h-643z" />
<glyph unicode="&#x113;" horiz-adv-x="1048" d="M61 461q0 207 138 344q139 141 362 141q184 0 313 -119q133 -125 134 -315q0 -92 -19 -154h-610q41 -127 215 -127q137 0 242 66l84 -217q-139 -104 -359 -105q-227 0 -362 134q-137 133 -138 352zM240 1065v246h602v-246h-602zM369 563h331q0 51 -36 88q-43 39 -113 39 q-137 0 -182 -127z" />
<glyph unicode="&#x116;" horiz-adv-x="1177" d="M184 0v1434h850v-308h-522v-252h461v-307h-461v-260h543v-307h-871zM418 1731q0 84 61 135q59 49 146 49q80 0 135 -49q61 -53 61 -135q0 -90 -61 -146q-55 -51 -135 -51q-88 0 -146 51q-61 53 -61 146z" />
<glyph unicode="&#x117;" horiz-adv-x="1048" d="M61 461q0 207 138 344q139 141 362 141q184 0 313 -119q133 -125 134 -315q0 -92 -19 -154h-610q41 -127 215 -127q137 0 242 66l84 -217q-139 -104 -359 -105q-227 0 -362 134q-137 133 -138 352zM369 563h331q0 51 -36 88q-43 39 -113 39q-137 0 -182 -127zM369 1239 q0 80 55 127q53 47 131 47q70 0 121 -47q53 -49 53 -127q0 -86 -53 -139q-51 -47 -121 -47q-80 0 -131 47q-55 51 -55 139z" />
<glyph unicode="&#x118;" horiz-adv-x="1177" d="M184 0v1434h850v-308h-522v-252h461v-307h-461v-260h543v-307q-84 0 -146 -37q-57 -35 -57 -74q0 -53 61 -53q39 0 82 21l92 -185q-66 -82 -245 -82q-129 0 -209 48q-88 51 -88 147q0 143 198 215h-559z" />
<glyph unicode="&#x119;" horiz-adv-x="1048" d="M61 461q0 207 138 344q139 141 362 141q184 0 313 -119q133 -125 134 -315q0 -92 -19 -154h-610q41 -127 215 -127q137 0 242 66l84 -217q-45 -33 -99 -55q-123 -76 -123 -136q0 -53 62 -53q39 0 82 21l92 -185q-66 -82 -246 -82q-129 0 -209 48q-88 51 -88 147 q0 111 166 190q-225 2 -360 136q-135 131 -136 350zM369 563h331q0 51 -36 88q-43 39 -113 39q-137 0 -182 -127z" />
<glyph unicode="&#x11a;" horiz-adv-x="1177" d="M184 0v1434h850v-308h-522v-252h461v-307h-461v-260h543v-307h-871zM248 1741l119 174l262 -156l262 156l106 -170l-364 -244h-8z" />
<glyph unicode="&#x11b;" horiz-adv-x="1048" d="M61 461q0 207 138 344q139 141 362 141q184 0 313 -119q133 -125 134 -315q0 -92 -19 -154h-610q41 -127 215 -127q137 0 242 66l84 -217q-139 -104 -359 -105q-227 0 -362 134q-137 133 -138 352zM217 1278l143 180l201 -166l205 162l137 -178l-340 -277h-8zM369 563 h331q0 51 -36 88q-43 39 -113 39q-137 0 -182 -127z" />
<glyph unicode="&#x11c;" horiz-adv-x="1488" d="M82 717q0 317 194 524q203 217 533 217q281 0 469 -149l-137 -265q-100 106 -293 107q-186 0 -297 -107q-121 -115 -121 -327q0 -199 117 -316q115 -119 307 -118q150 0 225 71v156h-305v307h612v-639q-203 -203 -536 -203q-362 0 -567 203q-201 199 -201 539zM414 1651 l364 243h8l377 -239l-119 -174l-262 135l-262 -135z" />
<glyph unicode="&#x11d;" horiz-adv-x="1032" d="M0 -119q0 228 305 291q-12 25 -12 51q0 31 14 53q-227 90 -227 316q0 145 108 246q115 109 299 108q135 0 236 -61l289 57l10 -246l-137 -26q10 -45 10 -78q0 -137 -100 -234q-106 -102 -275 -112q-2 -8 -2 -23q0 -16 6 -35q201 -6 322 -79q133 -82 133 -228 q0 -152 -143 -233q-131 -74 -347 -74q-217 0 -346 72q-143 80 -143 235zM158 1169l340 277h8l338 -279l-144 -180l-200 166l-205 -162zM287 -119q-1 -61 202 -61t203 61q0 63 -203 64q-203 0 -202 -64zM367 592q-1 -100 120 -100t121 100q0 109 -121 108q-55 0 -90 -32 q-31 -31 -30 -76z" />
<glyph unicode="&#x11e;" horiz-adv-x="1488" d="M82 717q0 317 194 524q203 217 533 217q281 0 469 -149l-137 -265q-100 106 -293 107q-186 0 -297 -107q-121 -115 -121 -327q0 -199 117 -316q115 -119 307 -118q150 0 225 71v156h-305v307h612v-639q-203 -203 -536 -203q-362 0 -567 203q-201 199 -201 539zM416 1726 l131 158q119 -123 293 -123q176 0 286 123l113 -160q-135 -229 -399 -229q-135 0 -260 74q-106 66 -164 157z" />
<glyph unicode="&#x11f;" horiz-adv-x="1032" d="M0 -119q0 228 305 291q-12 25 -12 51q0 31 14 53q-227 90 -227 316q0 145 108 246q115 109 299 108q135 0 236 -61l289 57l10 -246l-137 -26q10 -45 10 -78q0 -137 -100 -234q-106 -102 -275 -112q-2 -8 -2 -23q0 -16 6 -35q201 -6 322 -79q133 -82 133 -228 q0 -152 -143 -233q-131 -74 -347 -74q-217 0 -346 72q-143 80 -143 235zM147 1243l136 154q96 -106 215 -107q139 0 225 103l104 -148q-133 -201 -342 -201q-223 0 -338 199zM287 -119q-1 -61 202 -61t203 61q0 63 -203 64q-203 0 -202 -64zM367 592q-1 -100 120 -100 t121 100q0 109 -121 108q-55 0 -90 -32q-31 -31 -30 -76z" />
<glyph unicode="&#x120;" horiz-adv-x="1488" d="M82 717q0 317 194 524q203 217 533 217q281 0 469 -149l-137 -265q-100 106 -293 107q-186 0 -297 -107q-121 -115 -121 -327q0 -199 117 -316q115 -119 307 -118q150 0 225 71v156h-305v307h612v-639q-203 -203 -536 -203q-362 0 -567 203q-201 199 -201 539zM561 1731 q1 84 62 135q59 49 145 49q80 0 135 -49q61 -53 62 -135q0 -90 -62 -146q-55 -51 -135 -51q-88 0 -145 51q-61 53 -62 146z" />
<glyph unicode="&#x121;" horiz-adv-x="1032" d="M0 -119q0 228 305 291q-12 25 -12 51q0 31 14 53q-227 90 -227 316q0 145 108 246q115 109 299 108q135 0 236 -61l289 57l10 -246l-137 -26q10 -45 10 -78q0 -137 -100 -234q-106 -102 -275 -112q-2 -8 -2 -23q0 -16 6 -35q201 -6 322 -79q133 -82 133 -228 q0 -152 -143 -233q-131 -74 -347 -74q-217 0 -346 72q-143 80 -143 235zM287 -119q-1 -61 202 -61t203 61q0 63 -203 64q-203 0 -202 -64zM307 1239q0 80 55 127q53 47 132 47q70 0 120 -47q53 -49 54 -127q0 -86 -54 -139q-51 -47 -120 -47q-80 0 -132 47q-55 51 -55 139z M367 592q-1 -100 120 -100t121 100q0 109 -121 108q-55 0 -90 -32q-31 -31 -30 -76z" />
<glyph unicode="&#x122;" horiz-adv-x="1488" d="M82 717q0 317 194 524q203 217 533 217q281 0 469 -149l-137 -265q-100 106 -293 107q-186 0 -297 -107q-121 -115 -121 -327q0 -199 117 -316q115 -119 307 -118q150 0 225 71v156h-305v307h612v-639q-203 -203 -536 -203q-362 0 -567 203q-201 199 -201 539zM608 -295 q84 37 84 119q0 43 -24 74l305 59q27 -37 26 -98q0 -113 -100 -197q-90 -74 -201 -88z" />
<glyph unicode="&#x123;" horiz-adv-x="1032" d="M0 -119q0 228 305 291q-12 25 -12 51q0 31 14 53q-227 90 -227 316q0 145 108 246q115 109 299 108q135 0 236 -61l289 57l10 -246l-137 -26q10 -45 10 -78q0 -137 -100 -234q-106 -102 -275 -112q-2 -8 -2 -23q0 -16 6 -35q201 -6 322 -79q133 -82 133 -228 q0 -152 -143 -233q-131 -74 -347 -74q-217 0 -346 72q-143 80 -143 235zM287 -119q-1 -61 202 -61t203 61q0 63 -203 64q-203 0 -202 -64zM315 1159q0 113 103 197q88 74 198 88l91 -131q-84 -37 -84 -119q0 -43 24 -74l-305 -59q-27 37 -27 98zM367 592q-1 -100 120 -100 t121 100q0 109 -121 108q-55 0 -90 -32q-31 -31 -30 -76z" />
<glyph unicode="&#x124;" horiz-adv-x="1546" d="M184 0v1434h328v-549h522v549h328v-1434h-328v578h-522v-578h-328zM403 1651l365 243h8l377 -239l-119 -174l-262 135l-262 -135z" />
<glyph unicode="&#x125;" horiz-adv-x="1114" d="M-68 1651l365 243h8l377 -239l-119 -174l-262 135l-262 -135zM113 0v1434h307v-576q90 80 227 80q375 0 375 -397v-541h-307v502q0 68 -41 108q-41 41 -107 41q-88 0 -147 -59v-592h-307z" />
<glyph unicode="&#x126;" horiz-adv-x="1566" d="M41 1018v287h154v129h327v-129h522v129h328v-129h154v-287h-154v-1018h-328v578h-522v-578h-327v1018h-154zM522 885h522v133h-522v-133z" />
<glyph unicode="&#x127;" horiz-adv-x="1216" d="M20 1004v286h195v144h307v-144h275v-286h-275v-146q90 80 228 80q375 0 374 -397v-541h-307v502q0 68 -41 108q-41 41 -106 41q-88 0 -148 -59v-592h-307v1004h-195z" />
<glyph unicode="&#x12a;" horiz-adv-x="737" d="M57 1536v246h643v-246h-643zM205 0v1434h327v-1434h-327z" />
<glyph unicode="&#x12b;" horiz-adv-x="585" d="M-8 1065v246h602v-246h-602zM139 0v922h307v-922h-307z" />
<glyph unicode="&#x12e;" horiz-adv-x="737" d="M23 -215q0 143 198 215h-16v1434h327v-1434q-84 0 -145 -37q-57 -35 -57 -74q0 -53 61 -53q39 0 82 21l92 -185q-66 -82 -246 -82q-129 0 -208 48q-88 51 -88 147z" />
<glyph unicode="&#x12f;" horiz-adv-x="585" d="M-63 -215q0 147 202 215v922h307v-922h-18q-78 -4 -133 -39q-51 -35 -51 -72q0 -53 61 -53q39 0 82 21l92 -185q-66 -82 -246 -82q-129 0 -208 48q-88 51 -88 147zM104 1239q1 80 56 127q53 47 131 47q70 0 121 -47q53 -49 53 -127q0 -86 -53 -139q-51 -47 -121 -47 q-80 0 -131 47q-55 51 -56 139z" />
<glyph unicode="&#x130;" horiz-adv-x="737" d="M168 1731q0 84 61 135q59 49 146 49q80 0 135 -49q61 -53 61 -135q0 -90 -61 -146q-55 -51 -135 -51q-88 0 -146 51q-61 53 -61 146zM205 0v1434h327v-1434h-327z" />
<glyph unicode="&#x131;" horiz-adv-x="585" d="M139 0v922h307v-922h-307z" />
<glyph unicode="&#x134;" horiz-adv-x="833" d="M0 76l106 250q57 -43 119 -43q96 0 97 127v1024h327v-1084q0 -375 -379 -375q-193 0 -270 101zM113 1651l364 243h8l377 -239l-119 -174l-262 135l-262 -135z" />
<glyph unicode="&#x135;" horiz-adv-x="575" d="M-72 -356l80 243q47 -27 90 -26q57 0 58 100v961h307v-990q0 -358 -289 -358q-172 0 -246 70zM-33 1169l340 277h8l338 -279l-143 -180l-201 166l-205 -162z" />
<glyph unicode="&#x136;" horiz-adv-x="1417" d="M184 0v1434h328v-625l469 625h393l-538 -662l581 -772h-416l-489 682v-682h-328zM485 -295q84 37 84 119q0 43 -24 74l305 59q27 -37 27 -98q0 -113 -101 -197q-90 -74 -201 -88z" />
<glyph unicode="&#x137;" horiz-adv-x="1099" d="M113 0v1434h307v-912l252 400h385l-299 -416l342 -506h-393l-287 440v-440h-307zM295 -295q84 37 84 119q0 43 -25 74l305 59q27 -37 27 -98q0 -113 -100 -197q-90 -74 -201 -88z" />
<glyph unicode="&#x139;" horiz-adv-x="1116" d="M184 0v1434h328v-1127h584v-307h-912zM362 1673l480 242l114 -264l-510 -160z" />
<glyph unicode="&#x13a;" horiz-adv-x="632" d="M113 264v1170h307v-1053q0 -119 51 -119q29 0 80 33l61 -234q-104 -86 -270 -86q-229 0 -229 289zM147 1673l480 242l114 -264l-510 -160z" />
<glyph unicode="&#x13b;" horiz-adv-x="1116" d="M184 0v1434h328v-1127h584v-307h-912zM403 -295q84 37 84 119q0 43 -24 74l305 59q27 -37 27 -98q0 -113 -101 -197q-90 -74 -200 -88z" />
<glyph unicode="&#x13c;" horiz-adv-x="632" d="M113 264v1170h307v-1053q0 -119 51 -119q29 0 80 33l61 -234q-104 -86 -270 -86q-229 0 -229 289zM147 -295q84 37 84 119q0 43 -24 74l305 59q27 -37 27 -98q0 -113 -101 -197q-90 -74 -200 -88z" />
<glyph unicode="&#x13d;" horiz-adv-x="1116" d="M184 0v1434h328v-1127h584v-307h-912zM664 1100q88 100 88 231q0 51 -23 103h299q10 -25 10 -66q0 -268 -231 -397z" />
<glyph unicode="&#x13e;" horiz-adv-x="632" d="M113 264v1170h307v-1053q0 -119 51 -119q29 0 80 33l61 -234q-104 -86 -270 -86q-229 0 -229 289zM479 1100q88 100 88 231q0 51 -22 103h299q10 -25 10 -66q0 -268 -231 -397z" />
<glyph unicode="&#x13f;" horiz-adv-x="1116" d="M184 0v1434h328v-1127h584v-307h-912zM705 770q0 74 55 131q59 61 153 62q82 0 140 -62q53 -57 53 -131q0 -84 -53 -145q-55 -63 -140 -64q-94 0 -153 64q-55 59 -55 145z" />
<glyph unicode="&#x140;" horiz-adv-x="772" d="M113 264v1170h307v-1053q0 -119 51 -119q29 0 80 33l61 -234q-104 -86 -270 -86q-229 0 -229 289zM473 717q0 80 55 127q53 47 131 47q70 0 121 -47q53 -49 54 -127q0 -86 -54 -139q-51 -47 -121 -48q-80 0 -131 48q-55 51 -55 139z" />
<glyph unicode="&#x141;" horiz-adv-x="1136" d="M41 387v315l164 72v660h327v-514l306 135v-314l-306 -137v-297h584v-307h-911v459z" />
<glyph unicode="&#x142;" horiz-adv-x="694" d="M20 373v315l134 57v689h307v-553l172 75v-313l-172 -76v-186q0 -119 51 -119q29 0 80 33l61 -234q-104 -86 -270 -86q-229 0 -229 289v166z" />
<glyph unicode="&#x143;" horiz-adv-x="1617" d="M184 0v1434h262l680 -865v865h308v-1434h-263l-679 860v-860h-308zM629 1673l479 242l115 -264l-510 -160z" />
<glyph unicode="&#x144;" horiz-adv-x="1114" d="M113 0v922h307v-72q92 88 227 88q375 0 375 -389v-549h-307v496q0 156 -152 155q-80 0 -143 -63v-588h-307zM406 1159l210 352l240 -182l-268 -299z" />
<glyph unicode="&#x145;" horiz-adv-x="1617" d="M184 0v1434h262l680 -865v865h308v-1434h-263l-679 860v-860h-308zM588 -295q84 37 84 119q0 43 -25 74l305 59q27 -37 27 -98q0 -113 -100 -197q-90 -74 -201 -88z" />
<glyph unicode="&#x146;" horiz-adv-x="1114" d="M113 0v922h307v-72q92 88 227 88q375 0 375 -389v-549h-307v496q0 156 -152 155q-80 0 -143 -63v-588h-307zM324 -295q84 37 84 119q0 43 -25 74l305 59q27 -37 27 -98q0 -113 -101 -197q-90 -74 -200 -88z" />
<glyph unicode="&#x147;" horiz-adv-x="1617" d="M184 0v1434h262l680 -865v865h308v-1434h-263l-679 860v-860h-308zM436 1741l119 174l262 -156l262 156l107 -170l-365 -244h-8z" />
<glyph unicode="&#x148;" horiz-adv-x="1114" d="M113 0v922h307v-72q92 88 227 88q375 0 375 -389v-549h-307v496q0 156 -152 155q-80 0 -143 -63v-588h-307zM213 1278l143 180l201 -166l205 162l137 -178l-340 -277h-8z" />
<glyph unicode="&#x14c;" horiz-adv-x="1687" d="M82 717q0 317 209 526q215 215 553 215q334 0 545 -198q217 -207 217 -543q0 -324 -217 -533q-215 -209 -545 -209q-334 0 -545 199q-217 207 -217 543zM430 717q0 -184 121 -309t293 -125q197 0 309 127q104 117 104 307q0 193 -120 315q-117 119 -293 119 q-180 0 -295 -119q-119 -121 -119 -315zM543 1536v246h643v-246h-643z" />
<glyph unicode="&#x14d;" horiz-adv-x="1146" d="M61 461q1 211 138 346q143 139 374 139t375 -139q137 -135 137 -346t-137 -346q-143 -139 -375 -140q-231 0 -374 140q-137 135 -138 346zM293 1065v246h602v-246h-602zM389 461q0 -87 53 -144q51 -55 131 -55t132 53q53 53 53 146q0 88 -53 143t-132 55q-78 0 -129 -53 q-55 -55 -55 -145z" />
<glyph unicode="&#x150;" horiz-adv-x="1687" d="M82 717q0 317 209 526q215 215 553 215q334 0 545 -198q217 -207 217 -543q0 -324 -217 -533q-215 -209 -545 -209q-334 0 -545 199q-217 207 -217 543zM430 717q0 -184 121 -309t293 -125q197 0 309 127q104 117 104 307q0 193 -120 315q-117 119 -293 119 q-180 0 -295 -119q-119 -121 -119 -315zM500 1610l207 305l266 -133l-342 -291zM881 1620l325 295l217 -193l-417 -231z" />
<glyph unicode="&#x151;" horiz-adv-x="1146" d="M61 461q1 211 138 346q143 139 374 139t375 -139q137 -135 137 -346t-137 -346q-143 -139 -375 -140q-231 0 -374 140q-137 135 -138 346zM233 1159l199 357l221 -164l-237 -322zM389 461q0 -87 53 -144q51 -55 131 -55t132 53q53 53 53 146q0 88 -53 143t-132 55 q-78 0 -129 -53q-55 -55 -55 -145zM582 1159l241 328l228 -172l-287 -285z" />
<glyph unicode="&#x152;" horiz-adv-x="2117" d="M82 717q0 324 190 524q203 217 559 217q158 0 293 -57v33h850v-308h-522v-252h461v-307h-461v-260h543v-307h-871v29q-139 -53 -290 -54q-334 0 -543 203q-209 205 -209 539zM430 717q0 -190 121 -311q121 -123 313 -123q135 -1 260 69v711q-145 88 -293 88 q-174 0 -282 -111q-119 -119 -119 -323z" />
<glyph unicode="&#x153;" horiz-adv-x="1695" d="M61 461q0 211 138 346q143 139 374 139q193 0 324 -96q133 96 311 96q184 0 314 -119q133 -125 133 -315q0 -92 -19 -154h-610q41 -127 215 -127q137 0 242 66l84 -217q-139 -104 -359 -105q-188 0 -315 93q-131 -92 -320 -93q-231 0 -374 140q-137 135 -138 346z M389 461q0 -86 53 -144q51 -55 131 -55q95 0 152 57q-16 57 -16 142q0 76 18 143q-63 55 -154 55q-78 0 -129 -53q-55 -55 -55 -145zM1016 563h332q0 51 -37 88q-43 39 -113 39q-137 0 -182 -127z" />
<glyph unicode="&#x154;" horiz-adv-x="1378" d="M184 0v1434l488 4q530 0 530 -459q0 -293 -241 -414l417 -565h-397l-348 502h-121v-502h-328zM424 1673l479 242l115 -264l-510 -160zM512 809h119q223 0 223 166q0 156 -199 155l-143 -4v-317z" />
<glyph unicode="&#x155;" horiz-adv-x="753" d="M113 0v922h307v-74q61 90 190 90q96 0 144 -35l-109 -287q-59 35 -113 35q-76 0 -112 -65v-586h-307zM219 1159l211 352l240 -182l-269 -299z" />
<glyph unicode="&#x156;" horiz-adv-x="1378" d="M184 0v1434l488 4q530 0 530 -459q0 -293 -241 -414l417 -565h-397l-348 502h-121v-502h-328zM465 -295q84 37 84 119q0 43 -25 74l305 59q27 -37 27 -98q0 -113 -100 -197q-90 -74 -201 -88zM512 809h119q223 0 223 166q0 156 -199 155l-143 -4v-317z" />
<glyph unicode="&#x157;" horiz-adv-x="753" d="M113 0v922h307v-74q61 90 190 90q96 0 144 -35l-109 -287q-59 35 -113 35q-76 0 -112 -65v-586h-307zM139 -295q84 37 84 119q0 43 -24 74l305 59q27 -37 26 -98q0 -113 -100 -197q-90 -74 -201 -88z" />
<glyph unicode="&#x158;" horiz-adv-x="1378" d="M184 0v1434l488 4q530 0 530 -459q0 -293 -241 -414l417 -565h-397l-348 502h-121v-502h-328zM268 1741l119 174l262 -156l262 156l107 -170l-365 -244h-8zM512 809h119q223 0 223 166q0 156 -199 155l-143 -4v-317z" />
<glyph unicode="&#x159;" horiz-adv-x="753" d="M70 1278l143 180l201 -166l204 162l138 -178l-340 -277h-8zM113 0v922h307v-74q61 90 190 90q96 0 144 -35l-109 -287q-59 35 -113 35q-76 0 -112 -65v-586h-307z" />
<glyph unicode="&#x15a;" horiz-adv-x="1140" d="M82 211l186 223q119 -152 307 -151q135 0 136 110q-1 70 -95 127q20 -12 -204 107q-299 156 -299 417q0 172 125 291q129 123 337 123q274 0 422 -158l-176 -245q-102 96 -217 96q-143 0 -143 -107q0 -76 94 -135q2 -2 205 -102q299 -147 299 -410q0 -184 -141 -305 q-139 -117 -351 -117q-154 0 -288 60q-147 68 -197 176zM416 1673l479 242l115 -264l-510 -160z" />
<glyph unicode="&#x15b;" horiz-adv-x="940" d="M61 145l146 201q119 -115 295 -115q70 0 69 41q1 31 -75 54l-78 18q-55 14 -90 27q-244 78 -244 274q0 143 106 225q98 76 254 76q244 0 387 -125l-114 -217q-125 86 -254 86q-72 0 -72 -41q0 -29 76 -51l168 -43q244 -76 244 -268q0 -141 -107 -226q-109 -86 -291 -86 q-135 0 -266 62q-117 51 -154 108zM274 1159l211 352l240 -182l-268 -299z" />
<glyph unicode="&#x15c;" horiz-adv-x="1140" d="M82 211l186 223q119 -152 307 -151q135 0 136 110q-1 70 -95 127q20 -12 -204 107q-299 156 -299 417q0 172 125 291q129 123 337 123q274 0 422 -158l-176 -245q-102 96 -217 96q-143 0 -143 -107q0 -76 94 -135q2 -2 205 -102q299 -147 299 -410q0 -184 -141 -305 q-139 -117 -351 -117q-154 0 -288 60q-147 68 -197 176zM195 1651l364 243h8l377 -239l-119 -174l-262 135l-262 -135z" />
<glyph unicode="&#x15d;" horiz-adv-x="940" d="M61 145l146 201q119 -115 295 -115q70 0 69 41q1 31 -75 54l-78 18q-55 14 -90 27q-244 78 -244 274q0 143 106 225q98 76 254 76q244 0 387 -125l-114 -217q-125 86 -254 86q-72 0 -72 -41q0 -29 76 -51l168 -43q244 -76 244 -268q0 -141 -107 -226q-109 -86 -291 -86 q-135 0 -266 62q-117 51 -154 108zM127 1169l340 277h8l338 -279l-143 -180l-201 166l-205 -162z" />
<glyph unicode="&#x15e;" horiz-adv-x="1140" d="M82 211l186 223q119 -152 307 -151q135 0 136 110q0 70 -95 127q20 -12 -204 107q-299 156 -299 417q0 172 125 291q129 123 337 123q274 0 422 -158l-176 -245q-102 96 -217 96q-143 0 -143 -107q0 -76 94 -135q2 -2 205 -102q299 -147 299 -410q0 -172 -121 -286 q-121 -115 -307 -131v-33q238 -18 237 -185q0 -86 -77 -139q-80 -53 -220 -53q-205 0 -325 108l98 152q76 -76 152 -76q45 0 45 27q0 35 -52 35h-12v166q-309 37 -395 229z" />
<glyph unicode="&#x15f;" horiz-adv-x="940" d="M61 145l146 201q119 -115 295 -115q70 0 69 41q0 31 -75 54l-78 18q-55 14 -90 27q-244 78 -244 274q0 143 106 225q98 76 254 76q244 0 387 -125l-114 -217q-125 86 -254 86q-72 0 -72 -41q0 -29 76 -51l168 -43q244 -76 244 -268q0 -135 -97 -217q-98 -84 -266 -93v-30 q217 -18 217 -185q0 -88 -78 -139q-80 -53 -231 -53q-162 0 -272 100l90 142q57 -57 139 -58q45 0 45 27q0 35 -51 35h-13v172q-231 45 -301 157z" />
<glyph unicode="&#x160;" horiz-adv-x="1140" d="M82 211l186 223q119 -152 307 -151q135 0 136 110q-1 70 -95 127q20 -12 -204 107q-299 156 -299 417q0 172 125 291q129 123 337 123q274 0 422 -158l-176 -245q-102 96 -217 96q-143 0 -143 -107q0 -76 94 -135q2 -2 205 -102q299 -147 299 -410q0 -184 -141 -305 q-139 -117 -351 -117q-154 0 -288 60q-147 68 -197 176zM199 1741l118 174l263 -156l262 156l106 -170l-364 -244h-9z" />
<glyph unicode="&#x161;" horiz-adv-x="940" d="M61 145l146 201q119 -115 295 -115q70 0 69 41q1 31 -75 54l-78 18q-55 14 -90 27q-244 78 -244 274q0 143 106 225q98 76 254 76q244 0 387 -125l-114 -217q-125 86 -254 86q-72 0 -72 -41q0 -29 76 -51l168 -43q244 -76 244 -268q0 -141 -107 -226q-109 -86 -291 -86 q-135 0 -266 62q-117 51 -154 108zM125 1278l143 180l201 -166l205 162l137 -178l-340 -277h-8z" />
<glyph unicode="&#x162;" d="M20 1126v308h1188v-308h-430v-1126h-84v-53q238 -18 238 -185q0 -86 -78 -139q-80 -53 -219 -53q-205 0 -326 108l99 152q76 -76 151 -76q45 0 45 27q0 35 -51 35h-12v184h-90v1126h-431z" />
<glyph unicode="&#x163;" horiz-adv-x="749" d="M61 -330l91 142q57 -57 139 -58q45 0 45 27q0 35 -51 35h-13v176q-180 57 -180 358v828h307v-256h256v-287h-256v-270q0 -102 60 -103q66 0 137 53l92 -235q-104 -88 -262 -103v-30q217 -18 217 -185q0 -88 -78 -139q-80 -53 -231 -53q-162 0 -273 100z" />
<glyph unicode="&#x164;" d="M20 1126v308h1188v-308h-430v-1126h-327v1126h-431zM225 1741l119 174l262 -156l262 156l107 -170l-365 -244h-8z" />
<glyph unicode="&#x165;" horiz-adv-x="749" d="M92 350v828h307v-256h256v-287h-256v-270q0 -102 60 -103q66 0 137 53l92 -235q-121 -104 -309 -105q-287 0 -287 375zM459 1100q88 100 88 231q0 51 -23 103h299q10 -25 11 -66q0 -268 -232 -397z" />
<glyph unicode="&#x16a;" horiz-adv-x="1538" d="M164 606v828h328v-758q0 -393 296 -393q258 0 259 374v777h327v-842q0 -309 -178 -473q-156 -143 -408 -144q-285 0 -450 158q-174 166 -174 473zM467 1536v246h643v-246h-643z" />
<glyph unicode="&#x16b;" horiz-adv-x="1085" d="M92 342v580h307v-514q0 -145 119 -146q80 0 148 84v576h307v-922h-307v92q-92 -117 -265 -117q-127 0 -213 88q-96 100 -96 279zM231 1065v246h603v-246h-603z" />
<glyph unicode="&#x16c;" horiz-adv-x="1538" d="M164 606v828h328v-758q0 -393 296 -393q258 0 259 374v777h327v-842q0 -309 -178 -473q-156 -143 -408 -144q-285 0 -450 158q-174 166 -174 473zM348 1726l131 158q119 -123 293 -123q176 0 287 123l112 -160q-135 -229 -399 -229q-135 0 -260 74q-106 66 -164 157z" />
<glyph unicode="&#x16d;" horiz-adv-x="1085" d="M92 342v580h307v-514q0 -145 119 -146q80 0 148 84v576h307v-922h-307v92q-92 -117 -265 -117q-127 0 -213 88q-96 100 -96 279zM190 1243l136 154q96 -106 215 -107q139 0 225 103l104 -148q-133 -201 -342 -201q-223 0 -338 199z" />
<glyph unicode="&#x16e;" horiz-adv-x="1538" d="M164 606v828h328v-758q0 -393 296 -393q258 0 259 374v777h327v-842q0 -309 -178 -473q-156 -143 -408 -144q-285 0 -450 158q-174 166 -174 473zM451 1657q0 121 94 184q84 57 223 57q145 0 231 -57q96 -63 97 -184q0 -119 -97 -187q-88 -61 -231 -61q-137 0 -223 61 q-94 68 -94 187zM676 1657q0 -84 96 -84q98 0 98 84q0 78 -98 78q-96 0 -96 -78z" />
<glyph unicode="&#x16f;" horiz-adv-x="1085" d="M92 342v580h307v-514q0 -145 119 -146q80 0 148 84v576h307v-922h-307v92q-92 -117 -265 -117q-127 0 -213 88q-96 100 -96 279zM252 1251q0 111 80 187q80 78 200 78q123 0 205 -78q80 -76 80 -187q0 -109 -80 -184q-82 -76 -205 -76q-121 0 -200 76q-80 76 -80 184z M446 1255q1 -100 91 -100q86 0 86 100q0 96 -86 97q-90 0 -91 -97z" />
<glyph unicode="&#x170;" horiz-adv-x="1538" d="M164 606v828h328v-758q0 -393 296 -393q258 0 259 374v777h327v-842q0 -309 -178 -473q-156 -143 -408 -144q-285 0 -450 158q-174 166 -174 473zM397 1610l207 305l266 -133l-342 -291zM778 1620l326 295l217 -193l-418 -231z" />
<glyph unicode="&#x171;" horiz-adv-x="1085" d="M92 342v580h307v-514q0 -145 119 -146q80 0 148 84v576h307v-922h-307v92q-92 -117 -265 -117q-127 0 -213 88q-96 100 -96 279zM193 1159l198 357l221 -164l-237 -322zM541 1159l241 328l228 -172l-287 -285z" />
<glyph unicode="&#x172;" horiz-adv-x="1538" d="M164 606v828h328v-758q0 -393 296 -393q258 0 259 374v777h327v-842q0 -463 -375 -586q-131 -63 -131 -117q0 -53 62 -53q39 0 82 21l92 -185q-66 -82 -246 -82q-129 0 -209 48q-88 51 -88 147q0 119 160 192q-256 18 -404 177q-154 164 -153 452z" />
<glyph unicode="&#x173;" horiz-adv-x="1085" d="M92 342v580h307v-514q0 -145 119 -146q80 0 148 84v576h307v-922q-84 0 -146 -37q-57 -35 -57 -74q0 -53 61 -53q39 0 82 21l93 -185q-66 -82 -246 -82q-129 0 -209 48q-88 51 -88 147q0 147 203 215v92q-92 -117 -265 -117q-127 0 -213 88q-96 100 -96 279z" />
<glyph unicode="&#x178;" horiz-adv-x="1339" d="M0 1434h375l307 -543l303 543h354l-508 -850v-584h-327v584zM240 1714q0 74 59 117q55 43 141 43q76 0 129 -43q57 -45 58 -117q0 -80 -58 -129q-53 -43 -129 -43q-86 0 -141 43q-59 47 -59 129zM713 1714q0 74 59 117q57 43 141 43q76 0 129 -43q57 -45 58 -117 q0 -80 -58 -129q-51 -43 -129 -43q-86 0 -141 43q-59 47 -59 129z" />
<glyph unicode="&#x179;" horiz-adv-x="1331" d="M82 0v229l709 897h-668v308h1106v-230l-711 -897h731v-307h-1167zM485 1673l480 242l114 -264l-510 -160z" />
<glyph unicode="&#x17a;" horiz-adv-x="1013" d="M82 0v225l422 410h-391v287h819v-226l-424 -409h414v-287h-840zM334 1159l211 352l239 -182l-268 -299z" />
<glyph unicode="&#x17b;" horiz-adv-x="1331" d="M82 0v229l709 897h-668v308h1106v-230l-711 -897h731v-307h-1167zM479 1731q1 84 62 135q59 49 145 49q80 0 135 -49q61 -53 62 -135q0 -90 -62 -146q-55 -51 -135 -51q-88 0 -145 51q-61 53 -62 146z" />
<glyph unicode="&#x17c;" horiz-adv-x="1013" d="M82 0v225l422 410h-391v287h819v-226l-424 -409h414v-287h-840zM319 1239q1 80 56 127q53 47 131 47q70 0 121 -47q53 -49 53 -127q0 -86 -53 -139q-51 -47 -121 -47q-80 0 -131 47q-55 51 -56 139z" />
<glyph unicode="&#x17d;" horiz-adv-x="1331" d="M82 0v229l709 897h-668v308h1106v-230l-711 -897h731v-307h-1167zM309 1741l119 174l262 -156l262 156l107 -170l-365 -244h-8z" />
<glyph unicode="&#x17e;" horiz-adv-x="1013" d="M82 0v225l422 410h-391v287h819v-226l-424 -409h414v-287h-840zM184 1278l144 180l200 -166l205 162l137 -178l-340 -277h-8z" />
<glyph unicode="&#x17f;" horiz-adv-x="532" d="M113 0v1071q0 188 92 289q86 98 244 98q184 0 268 -90l-103 -233q-35 37 -110 36q-84 0 -84 -118v-1053h-307z" />
<glyph unicode="&#x18f;" horiz-adv-x="1603" d="M94 885h1071q-96 266 -446 266q-172 0 -311 -104l-125 245q190 166 516 166q315 0 518 -203q205 -207 205 -538q0 -342 -203 -543q-201 -199 -537 -199q-346 0 -538 238q-205 252 -150 672zM434 578q16 -123 103 -205q94 -90 241 -90q322 0 400 295h-744z" />
<glyph unicode="&#x192;" d="M123 -356l80 243q47 -27 90 -26q66 0 84 100l117 674h-195v287h244l26 149q39 205 113 293q80 94 229 94q184 0 269 -90l-103 -233q-35 37 -110 36q-70 0 -90 -118l-23 -131h182v-287h-231l-121 -703q-35 -184 -96 -264q-74 -94 -219 -94q-172 0 -246 70z" />
<glyph unicode="&#x1dd;" horiz-adv-x="1048" d="M41 410q0 92 18 153h623q-41 127 -215 127q-137 0 -242 -65l-84 217q139 104 359 104q225 0 358 -133q129 -133 129 -352q0 -211 -121 -344q-129 -141 -356 -142q-199 0 -332 119q-137 123 -137 316zM360 358q0 -51 39 -88q41 -39 111 -39q137 0 182 127h-332z" />
<glyph unicode="&#x218;" horiz-adv-x="1140" d="M82 211l186 223q119 -152 307 -151q135 0 136 110q-1 70 -95 127q20 -12 -204 107q-299 156 -299 417q0 172 125 291q129 123 337 123q274 0 422 -158l-176 -245q-102 96 -217 96q-143 0 -143 -107q0 -76 94 -135q2 -2 205 -102q299 -147 299 -410q0 -184 -141 -305 q-139 -117 -351 -117q-154 0 -288 60q-147 68 -197 176zM375 -295q84 37 84 119q0 43 -25 74l305 59q27 -37 27 -98q0 -113 -100 -197q-90 -74 -201 -88z" />
<glyph unicode="&#x219;" horiz-adv-x="940" d="M61 145l146 201q119 -115 295 -115q70 0 69 41q1 31 -75 54l-78 18q-55 14 -90 27q-244 78 -244 274q0 143 106 225q98 76 254 76q244 0 387 -125l-114 -217q-125 86 -254 86q-72 0 -72 -41q0 -29 76 -51l168 -43q244 -76 244 -268q0 -141 -107 -226q-109 -86 -291 -86 q-135 0 -266 62q-117 51 -154 108zM256 -295q84 37 84 119q0 43 -25 74l306 59q27 -37 26 -98q0 -113 -100 -197q-90 -74 -201 -88z" />
<glyph unicode="&#x21a;" d="M20 1126v308h1188v-308h-430v-1126h-327v1126h-431zM373 -295q84 37 84 119q0 43 -25 74l305 59q27 -37 27 -98q0 -113 -100 -197q-90 -74 -201 -88z" />
<glyph unicode="&#x21b;" horiz-adv-x="749" d="M92 350v828h307v-256h256v-287h-256v-270q0 -102 60 -103q66 0 137 53l92 -235q-121 -104 -309 -105q-287 0 -287 375zM117 -295q84 37 84 119q0 43 -25 74l305 59q27 -37 27 -98q0 -113 -100 -197q-90 -74 -201 -88z" />
<glyph unicode="&#x2c6;" horiz-adv-x="931" d="M123 1169l340 277h8l338 -279l-143 -180l-201 166l-205 -162z" />
<glyph unicode="&#x2da;" horiz-adv-x="811" d="M123 1251q0 111 80 187q80 78 200 78q123 0 205 -78q80 -76 80 -187q0 -109 -80 -184q-82 -76 -205 -76q-121 0 -200 76q-80 76 -80 184zM317 1255q1 -100 91 -100q86 0 86 100q0 96 -86 97q-90 0 -91 -97z" />
<glyph unicode="&#x2dc;" horiz-adv-x="993" d="M123 1200q113 160 270 160q49 0 125 -39q76 -41 117 -41q53 0 135 55l100 -153q-123 -147 -260 -148q-45 0 -121 41q-76 39 -122 39q-31 0 -121 -51z" />
<glyph unicode="&#x401;" horiz-adv-x="1177" d="M184 0v1434h850v-308h-522v-252h461v-307h-461v-260h543v-307h-871zM205 1714q0 74 59 117q55 43 142 43q76 0 129 -43q57 -45 57 -117q0 -80 -57 -129q-53 -43 -129 -43q-86 0 -142 43q-59 47 -59 129zM678 1714q0 74 59 117q57 43 142 43q76 0 129 -43q57 -45 57 -117 q0 -80 -57 -129q-51 -43 -129 -43q-86 0 -142 43q-59 47 -59 129z" />
<glyph unicode="&#x402;" horiz-adv-x="1570" d="M20 1126v308h1188v-308h-430v-321q109 61 277 61q434 0 434 -450q0 -215 -100 -330q-98 -111 -279 -111q-193 0 -270 101l106 250q57 -43 119 -43q96 0 96 127q0 150 -168 149q-125 0 -215 -53v-506h-327v1126h-431z" />
<glyph unicode="&#x403;" horiz-adv-x="1044" d="M184 0v1434h820v-308h-492v-1126h-328zM506 1673l479 242l115 -264l-510 -160z" />
<glyph unicode="&#x404;" horiz-adv-x="1372" d="M82 717q0 332 205 538q203 203 518 203q326 0 516 -166l-145 -245q-139 104 -312 104q-342 0 -430 -266h567v-307h-573q41 -150 174 -228q115 -68 272 -67q195 0 338 118l119 -276q-162 -150 -483 -150q-352 0 -559 199t-207 543z" />
<glyph unicode="&#x405;" horiz-adv-x="1140" d="M82 211l186 223q119 -152 307 -151q135 0 136 110q-1 70 -95 127q20 -12 -204 107q-299 156 -299 417q0 172 125 291q129 123 337 123q274 0 422 -158l-176 -245q-102 96 -217 96q-143 0 -143 -107q0 -76 94 -135q2 -2 205 -102q299 -147 299 -410q0 -184 -141 -305 q-139 -117 -351 -117q-154 0 -288 60q-147 68 -197 176z" />
<glyph unicode="&#x406;" horiz-adv-x="737" d="M205 0v1434h327v-1434h-327z" />
<glyph unicode="&#x407;" horiz-adv-x="737" d="M20 1714q1 74 52 117q47 43 118 43q68 0 115 -43q49 -45 49 -117q0 -80 -49 -129q-47 -43 -115 -43q-72 0 -118 43q-51 47 -52 129zM205 0v1434h327v-1434h-327zM385 1714q0 74 51 117q47 43 121 43q66 0 113 -43q49 -45 49 -117q0 -80 -49 -129q-45 -43 -113 -43 q-74 0 -121 43q-51 47 -51 129z" />
<glyph unicode="&#x408;" horiz-adv-x="833" d="M0 76l106 250q57 -43 119 -43q96 0 97 127v1024h327v-1084q0 -375 -379 -375q-193 0 -270 101z" />
<glyph unicode="&#x409;" horiz-adv-x="2045" d="M41 0l6 328q113 -18 172 104q88 180 127 715l21 287h950v-449q66 8 125 8q258 0 393 -131q129 -127 129 -352q0 -238 -154 -373q-158 -141 -438 -141l-383 4v1126h-315l-31 -270q-61 -545 -207 -731q-131 -168 -395 -125zM1317 311q70 -8 94 -8q205 0 205 199 q0 184 -203 184q-30 0 -96 -10v-365z" />
<glyph unicode="&#x40a;" horiz-adv-x="2072" d="M184 0v1434h328v-504h502v504h327v-490q68 8 127 8q256 0 394 -129q129 -123 129 -334q0 -221 -154 -354q-160 -139 -438 -139l-385 4v623h-502v-623h-328zM1341 311q74 -8 97 -8q205 0 204 178q0 164 -202 164q-31 0 -99 -10v-324z" />
<glyph unicode="&#x40b;" horiz-adv-x="1572" d="M20 1126v308h1188v-308h-430v-321q109 61 273 61q180 0 297 -98q143 -119 143 -358v-410h-328v311q0 248 -200 248q-96 0 -185 -55v-504h-327v1126h-431z" />
<glyph unicode="&#x40c;" horiz-adv-x="1417" d="M184 0v1434h328v-625l469 625h393l-538 -662l581 -772h-416l-489 682v-682h-328zM629 1673l479 242l115 -264l-510 -160z" />
<glyph unicode="&#x40e;" horiz-adv-x="1435" d="M20 1434h371l404 -701l290 701h330l-481 -1094q-152 -340 -420 -340q-137 0 -217 63l115 279q51 -35 100 -35q80 0 106 58l19 43zM315 1802h308q0 -102 127 -102q63 0 88 18q31 23 30 84h308q2 -147 -115 -237q-119 -90 -311 -90q-205 0 -322 90q-113 88 -113 237z" />
<glyph unicode="&#x40f;" horiz-adv-x="1505" d="M184 0v1434h328v-1127h481v1127h328v-1434h-416v-307h-307v307h-414z" />
<glyph unicode="&#x410;" horiz-adv-x="1484" d="M0 0l596 1434h293l596 -1434h-350l-119 301h-567l-119 -301h-330zM571 608h322l-160 406z" />
<glyph unicode="&#x411;" horiz-adv-x="1263" d="M184 0v1434h865v-308h-537v-227q59 12 164 12q209 0 336 -118q129 -123 129 -324q0 -225 -144 -352q-147 -127 -413 -127q-106 0 -240 6zM512 307q88 -10 123 -10q178 0 178 147q0 160 -164 160q-63 0 -137 -12v-285z" />
<glyph unicode="&#x412;" horiz-adv-x="1263" d="M184 4v1426q240 12 434 12q244 0 369 -105q113 -92 113 -252q0 -213 -164 -319v-4q205 -76 205 -328q0 -217 -156 -334q-143 -109 -389 -108q-285 0 -412 12zM512 311q45 -12 111 -12q190 0 190 152q0 129 -174 129h-127v-269zM512 866h109q152 0 151 140q0 61 -49 96 q-43 33 -109 33q-28 -1 -102 -9v-260z" />
<glyph unicode="&#x413;" horiz-adv-x="1044" d="M184 0v1434h820v-308h-492v-1126h-328z" />
<glyph unicode="&#x414;" horiz-adv-x="1564" d="M20 -246v553h154q180 231 207 840l12 287h936v-1127h195v-553h-307v246h-889v-246h-308zM535 307h466v819h-290l-23 -241q-39 -430 -153 -578z" />
<glyph unicode="&#x415;" horiz-adv-x="1177" d="M184 0v1434h850v-308h-522v-252h461v-307h-461v-260h543v-307h-871z" />
<glyph unicode="&#x416;" horiz-adv-x="1994" d="M0 0l520 748l-497 686h376l435 -627v627h327v-627l434 627h377l-497 -684l520 -750h-377l-457 686v-686h-327v686l-457 -686h-377z" />
<glyph unicode="&#x417;" horiz-adv-x="1212" d="M61 233l179 224q156 -174 321 -174q201 0 201 151q0 145 -223 146h-131v307h122q176 0 177 131q0 133 -158 133q-147 0 -254 -150l-189 222q164 236 486 235q199 0 317 -102q125 -109 125 -301q0 -184 -180 -305v-7q236 -74 236 -342q0 -190 -162 -311 q-150 -115 -353 -115q-344 0 -514 258z" />
<glyph unicode="&#x418;" horiz-adv-x="1617" d="M184 0v1434h328v-891l635 891h287v-1434h-328v891l-635 -891h-287z" />
<glyph unicode="&#x419;" horiz-adv-x="1617" d="M184 0v1434h328v-891l635 891h287v-1434h-328v891l-635 -891h-287zM410 1802h307q0 -102 127 -102q63 0 88 18q31 23 31 84h307q2 -147 -115 -237q-119 -90 -311 -90q-205 0 -322 90q-113 88 -112 237z" />
<glyph unicode="&#x41a;" horiz-adv-x="1417" d="M184 0v1434h328v-625l469 625h393l-538 -662l581 -772h-416l-489 682v-682h-328z" />
<glyph unicode="&#x41b;" horiz-adv-x="1501" d="M41 0l6 328q113 -18 172 104q88 180 127 715l21 287h950v-1434h-328v1126h-315l-31 -270q-61 -545 -207 -731q-131 -168 -395 -125z" />
<glyph unicode="&#x41c;" horiz-adv-x="1867" d="M184 0v1434h330l442 -605l418 605h309v-1434h-327v913l-400 -559h-47l-397 553v-907h-328z" />
<glyph unicode="&#x41d;" horiz-adv-x="1546" d="M184 0v1434h328v-549h522v549h328v-1434h-328v578h-522v-578h-328z" />
<glyph unicode="&#x41e;" horiz-adv-x="1687" d="M82 717q0 317 209 526q215 215 553 215q334 0 545 -198q217 -207 217 -543q0 -324 -217 -533q-215 -209 -545 -209q-334 0 -545 199q-217 207 -217 543zM430 717q0 -184 121 -309t293 -125q197 0 309 127q104 117 104 307q0 193 -120 315q-117 119 -293 119 q-180 0 -295 -119q-119 -121 -119 -315z" />
<glyph unicode="&#x41f;" horiz-adv-x="1525" d="M184 0v1434h1157v-1434h-327v1126h-502v-1126h-328z" />
<glyph unicode="&#x420;" horiz-adv-x="1284" d="M184 0v1434l439 4q305 0 452 -146q127 -123 127 -329q0 -201 -141 -336q-150 -145 -389 -146q-109 0 -160 6v-487h-328zM512 799q78 -10 150 -11q193 0 192 177q0 166 -199 165l-143 -4v-327z" />
<glyph unicode="&#x421;" horiz-adv-x="1341" d="M82 717q0 324 190 524q203 217 559 217q285 0 439 -149l-146 -246q-145 88 -293 88q-174 0 -282 -111q-119 -119 -119 -323q0 -190 121 -311q121 -123 313 -123q172 0 312 104l124 -246q-147 -166 -466 -166q-334 0 -543 203q-209 205 -209 539z" />
<glyph unicode="&#x422;" d="M20 1126v308h1188v-308h-430v-1126h-327v1126h-431z" />
<glyph unicode="&#x423;" horiz-adv-x="1435" d="M20 1434h371l404 -701l290 701h330l-481 -1094q-152 -340 -420 -340q-137 0 -217 63l115 279q51 -35 100 -35q80 0 106 58l19 43z" />
<glyph unicode="&#x424;" horiz-adv-x="1728" d="M61 737q0 260 179 410q170 143 458 151v152h328v-152q287 -6 461 -151q180 -154 180 -410q0 -262 -178 -411q-172 -145 -463 -150v-192h-328v192q-293 4 -462 148q-174 150 -175 413zM410 737q-1 -254 288 -260v520q-289 -8 -288 -260zM1026 477q293 6 293 260 q0 252 -293 260v-520z" />
<glyph unicode="&#x425;" horiz-adv-x="1380" d="M0 0l477 731l-454 703h385l290 -461l279 461h385l-459 -703l477 -731h-385l-307 481l-303 -481h-385z" />
<glyph unicode="&#x426;" horiz-adv-x="1566" d="M184 0v1434h328v-1127h492v1127h327v-1127h195v-553h-307v246h-1035z" />
<glyph unicode="&#x427;" horiz-adv-x="1402" d="M143 922v512h328v-414q0 -248 201 -248q115 0 219 76v586h328v-1434h-328v549q-106 -84 -307 -84q-180 0 -297 98q-143 119 -144 359z" />
<glyph unicode="&#x428;" horiz-adv-x="2048" d="M184 0v1434h328v-1127h348v1127h328v-1127h348v1127h328v-1434h-1680z" />
<glyph unicode="&#x429;" horiz-adv-x="2099" d="M184 0v1434h328v-1127h348v1127h328v-1127h348v1127h328v-1127h194v-553h-307v246h-1567z" />
<glyph unicode="&#x42a;" horiz-adv-x="1386" d="M20 1126v308h615v-449q68 8 127 8q272 0 412 -131q131 -125 131 -352q0 -236 -156 -373q-164 -141 -457 -141l-385 4v1126h-287zM635 311q74 -8 96 -8q225 0 225 199q0 184 -223 184q-30 0 -98 -10v-365z" />
<glyph unicode="&#x42b;" horiz-adv-x="1812" d="M184 0v1434h328v-449q68 8 127 8q258 0 393 -131q129 -127 129 -352q0 -233 -153 -373q-158 -141 -439 -141zM512 311q74 -8 96 -8q205 0 205 199q0 184 -203 184q-30 0 -98 -10v-365zM1300 0v1434h328v-1434h-328z" />
<glyph unicode="&#x42c;" horiz-adv-x="1263" d="M184 0v1434h328v-449q68 8 127 8q272 0 412 -131q131 -125 131 -352q0 -236 -156 -373q-164 -141 -457 -141zM512 311q74 -8 96 -8q225 0 226 199q0 184 -224 184q-30 0 -98 -10v-365z" />
<glyph unicode="&#x42d;" horiz-adv-x="1372" d="M41 125l139 276q143 -119 338 -118q350 0 428 295h-575v307h563q-96 266 -447 266q-172 0 -311 -104l-125 245q190 166 516 166q315 0 518 -203q205 -207 205 -538q0 -344 -207 -543t-559 -199q-322 0 -483 150z" />
<glyph unicode="&#x42e;" horiz-adv-x="2220" d="M184 0v1434h328v-549h180q51 256 236 411q193 162 469 162q332 0 534 -198q207 -205 207 -543q0 -326 -207 -533q-207 -209 -534 -209q-270 0 -465 160q-203 166 -246 443h-174v-578h-328zM1024 717q0 -182 113 -309q113 -125 270 -125q195 0 293 127q90 113 90 307 q0 197 -104 315q-104 119 -279 119q-166 0 -272 -119q-111 -121 -111 -315z" />
<glyph unicode="&#x42f;" horiz-adv-x="1316" d="M20 0l336 532q-221 131 -221 392q0 223 141 360q162 158 476 158q45 0 192 -4t189 -4v-1434h-328v461h-146l-272 -461h-367zM483 946q0 -147 150 -178h172v358q-41 8 -119 9q-84 0 -141 -50q-61 -53 -62 -139z" />
<glyph unicode="&#x430;" horiz-adv-x="952" d="M61 279q0 150 99 231q88 74 233 74q115 0 180 -52q8 158 -127 158q-90 0 -235 -57l-76 223q147 90 342 90q383 0 383 -391v-555h-266v84q-68 -96 -242 -96q-129 0 -207 75q-84 78 -84 216zM369 309q0 -66 88 -65q81 0 116 47v57q-43 31 -116 31q-88 0 -88 -70z" />
<glyph unicode="&#x431;" horiz-adv-x="1114" d="M51 567q0 586 355 742q408 178 378 149l160 -254q-76 -80 -203 -114q-178 -49 -223 -74q-139 -74 -160 -244h4q98 129 283 129q182 0 295 -121q113 -123 113 -327q0 -201 -131 -336q-139 -141 -361 -142q-240 0 -375 162q-135 158 -135 430zM379 502q2 -98 45 -164 q47 -76 129 -76q84 0 129 53q43 47 43 123t-39 123q-43 53 -121 53q-135 0 -186 -112z" />
<glyph unicode="&#x432;" horiz-adv-x="1046" d="M113 0v922l170 6q131 6 225 6q436 0 436 -246q0 -80 -53 -139q-45 -51 -109 -62v-4q182 -53 183 -207q0 -289 -455 -288q-61 0 -211 6q-147 6 -186 6zM420 242q90 -8 125 -9q94 0 94 66q0 70 -121 70h-98v-127zM420 553h102q96 0 96 70q0 66 -81 65q-80 0 -117 -6v-129z " />
<glyph unicode="&#x433;" horiz-adv-x="788" d="M113 0v922h655v-287h-348v-635h-307z" />
<glyph unicode="&#x434;" horiz-adv-x="1175" d="M20 -205v492h119q100 131 119 436l12 199h731v-635h154v-492h-287v205h-561v-205h-287zM461 287h233v348h-137l-4 -37q-25 -207 -92 -311z" />
<glyph unicode="&#x435;" horiz-adv-x="1048" d="M61 461q0 207 138 344q139 141 362 141q184 0 313 -119q133 -125 134 -315q0 -92 -19 -154h-610q41 -127 215 -127q137 0 242 66l84 -217q-139 -104 -359 -105q-227 0 -362 134q-137 133 -138 352zM369 563h331q0 51 -36 88q-43 39 -113 39q-137 0 -182 -127z" />
<glyph unicode="&#x436;" horiz-adv-x="1513" d="M0 0l289 473l-271 449h371l211 -410v410h307v-412l219 412h363l-270 -449l294 -473h-362l-244 436v-436h-307v434l-238 -434h-362z" />
<glyph unicode="&#x437;" horiz-adv-x="980" d="M41 141l156 189q92 -109 241 -109q133 0 133 66q0 70 -98 69h-176v205h166q88 0 88 74q0 66 -119 65q-111 0 -235 -106l-127 184q139 168 422 168q188 0 290 -74q96 -70 97 -196q0 -145 -168 -199v-4q188 -43 188 -217q0 -129 -119 -205t-317 -76q-301 0 -422 166z" />
<glyph unicode="&#x438;" horiz-adv-x="1167" d="M113 0v922h307v-482l328 482h307v-922h-307v481l-328 -481h-307z" />
<glyph unicode="&#x439;" horiz-adv-x="1167" d="M113 0v922h307v-482l328 482h307v-922h-307v481l-328 -481h-307zM240 1372h266q0 -119 86 -119q78 0 78 119h266q0 -152 -86 -246q-92 -102 -258 -102q-180 0 -270 102q-82 90 -82 246z" />
<glyph unicode="&#x43a;" horiz-adv-x="1091" d="M113 0v922h307v-426l250 426h385l-299 -439l344 -483h-398l-282 430v-430h-307z" />
<glyph unicode="&#x43b;" horiz-adv-x="1116" d="M41 274q174 -20 192 361l15 287h756v-922h-308v614h-161l-5 -41q-35 -354 -133 -479q-96 -119 -329 -119z" />
<glyph unicode="&#x43c;" horiz-adv-x="1302" d="M113 0v922h276l277 -314l256 314h268v-922h-307v453l-224 -256h-6l-233 256v-453h-307z" />
<glyph unicode="&#x43d;" horiz-adv-x="1136" d="M113 0v922h307v-318h297v318h307v-922h-307v317h-297v-317h-307z" />
<glyph unicode="&#x43e;" horiz-adv-x="1146" d="M61 461q1 211 138 346q143 139 374 139t375 -139q137 -135 137 -346t-137 -346q-143 -139 -375 -140q-231 0 -374 140q-137 135 -138 346zM389 461q0 -87 53 -144q51 -55 131 -55t132 53q53 53 53 146q0 88 -53 143t-132 55q-78 0 -129 -53q-55 -55 -55 -145z" />
<glyph unicode="&#x43f;" horiz-adv-x="1126" d="M113 0v922h901v-922h-307v635h-287v-635h-307z" />
<glyph unicode="&#x440;" horiz-adv-x="1148" d="M113 -410v1332h307v-70q94 94 256 94q184 0 299 -133q113 -131 112 -338q0 -215 -135 -354q-139 -145 -360 -146q-104 0 -172 29v-414h-307zM420 297q59 -35 143 -35q96 0 148 62q49 55 49 145q0 84 -47 135q-49 55 -133 55q-86 1 -160 -81v-281z" />
<glyph unicode="&#x441;" horiz-adv-x="993" d="M61 461q0 205 136 344q137 141 352 141q252 0 377 -131l-142 -242q-86 86 -196 86q-78 0 -135 -49q-63 -57 -64 -149q0 -88 66 -146q59 -53 137 -53q113 0 209 103l143 -226q-119 -164 -377 -164q-229 0 -368 134q-137 133 -138 352z" />
<glyph unicode="&#x442;" horiz-adv-x="921" d="M41 614v308h840v-308h-267v-614h-307v614h-266z" />
<glyph unicode="&#x443;" horiz-adv-x="1056" d="M0 922h371l157 -422q12 -33 35 -127q8 82 23 129l121 420h350l-359 -922q-98 -242 -178 -328q-76 -82 -184 -82q-117 0 -219 86l98 232q49 -33 88 -33q57 0 88 76l21 49z" />
<glyph unicode="&#x444;" horiz-adv-x="1433" d="M61 461q0 201 127 336q137 150 371 149h4v488h307v-488h7q238 0 370 -141q125 -131 125 -344q0 -217 -119 -346q-129 -139 -376 -140h-7v-385h-307v385h-2q-238 0 -373 140q-127 133 -127 346zM389 461q0 -197 174 -199v397h-6q-168 0 -168 -198zM870 262q174 0 174 199 t-167 198h-7v-397z" />
<glyph unicode="&#x445;" horiz-adv-x="1099" d="M20 0l306 467l-285 455h375l141 -263l148 263h354l-287 -439l307 -483h-374l-160 291l-170 -291h-355z" />
<glyph unicode="&#x446;" horiz-adv-x="1167" d="M113 0v922h307v-635h266v635h307v-635h154v-492h-287v205h-747z" />
<glyph unicode="&#x447;" horiz-adv-x="1024" d="M61 610v312h328v-271q0 -125 98 -125q76 0 117 21v375h307v-922h-307v279q-88 -39 -205 -39q-338 0 -338 370z" />
<glyph unicode="&#x448;" horiz-adv-x="1515" d="M113 0v922h307v-635h184v635h307v-635h185v635h307v-922h-1290z" />
<glyph unicode="&#x449;" horiz-adv-x="1576" d="M113 0v922h307v-635h184v635h307v-635h185v635h307v-635h153v-492h-286v205h-1157z" />
<glyph unicode="&#x44a;" horiz-adv-x="1130" d="M41 635v287h522v-215h107q223 0 331 -105q88 -86 89 -227q0 -156 -101 -256q-117 -119 -342 -119h-391v635h-215zM563 266h78q121 0 121 96q0 98 -119 99h-80v-195z" />
<glyph unicode="&#x44b;" horiz-adv-x="1443" d="M113 0v922h307v-215h96q223 0 332 -105q88 -86 88 -227q0 -156 -100 -256q-117 -119 -342 -119h-381zM420 266h67q121 0 121 96q0 98 -119 99h-69v-195zM1024 0v922h307v-922h-307z" />
<glyph unicode="&#x44c;" horiz-adv-x="987" d="M113 0v922h307v-215h106q223 0 332 -105q88 -86 88 -227q0 -156 -100 -256q-117 -119 -342 -119h-391zM420 266h78q121 0 120 96q0 98 -118 99h-80v-195z" />
<glyph unicode="&#x44d;" horiz-adv-x="1015" d="M51 123l144 201q92 -82 233 -82q168 0 205 120h-369v205h363q-47 113 -193 113q-113 0 -246 -82l-125 213q133 135 365 135q246 0 387 -131q139 -131 139 -354q0 -211 -129 -344q-139 -141 -379 -142q-254 0 -395 148z" />
<glyph unicode="&#x44e;" horiz-adv-x="1607" d="M113 0v922h327v-297h125q45 147 166 231q127 90 303 90q229 0 373 -139q139 -135 139 -346q0 -209 -141 -346q-143 -139 -371 -140q-184 0 -311 95q-123 92 -164 247h-119v-317h-327zM891 461q-1 -178 153 -178t154 178t-154 178q-68 0 -110 -45q-43 -49 -43 -133z" />
<glyph unicode="&#x44f;" horiz-adv-x="1030" d="M41 0l219 303q-154 82 -154 272q0 154 115 244q129 102 379 103h318v-922h-308v236h-73l-146 -236h-350zM434 551q0 -37 35 -64t86 -26h55v194h-59q-51 0 -86 -32q-31 -31 -31 -72z" />
<glyph unicode="&#x451;" horiz-adv-x="1048" d="M61 461q0 207 138 344q139 141 362 141q184 0 313 -119q133 -125 134 -315q0 -92 -19 -154h-610q41 -127 215 -127q137 0 242 66l84 -217q-139 -104 -359 -105q-227 0 -362 134q-137 133 -138 352zM199 1206q0 76 49 123q47 43 119 43q61 0 106 -43q49 -47 49 -123 q0 -82 -49 -131q-43 -45 -106 -45q-72 0 -119 45q-49 49 -49 131zM369 563h331q0 51 -36 88q-43 39 -113 39q-137 0 -182 -127zM594 1206q0 76 51 123q47 43 117 43q63 0 108 -43q47 -47 48 -123q0 -82 -48 -131q-45 -45 -108 -45q-72 0 -117 45q-51 49 -51 131z" />
<glyph unicode="&#x452;" horiz-adv-x="1196" d="M20 829v246h216v359h307v-359h278v-246h-278v-176q90 80 227 80q375 0 375 -385q0 -502 -324 -758h-323q338 317 338 682q0 174 -146 174q-88 0 -147 -59v-387h-307v829h-216z" />
<glyph unicode="&#x453;" horiz-adv-x="788" d="M113 0v922h655v-287h-348v-635h-307zM319 1159l211 352l240 -182l-268 -299z" />
<glyph unicode="&#x454;" horiz-adv-x="1015" d="M61 461q0 223 142 354q139 131 385 131q231 0 364 -135l-125 -213q-106 82 -245 82q-147 0 -195 -113h365v-205h-367q45 -121 223 -120q121 0 213 82l144 -201q-141 -147 -375 -148q-250 0 -393 142q-135 133 -136 344z" />
<glyph unicode="&#x455;" horiz-adv-x="940" d="M61 145l146 201q119 -115 295 -115q70 0 69 41q1 31 -75 54l-78 18q-55 14 -90 27q-244 78 -244 274q0 143 106 225q98 76 254 76q244 0 387 -125l-114 -217q-125 86 -254 86q-72 0 -72 -41q0 -29 76 -51l168 -43q244 -76 244 -268q0 -141 -107 -226q-109 -86 -291 -86 q-135 0 -266 62q-117 51 -154 108z" />
<glyph unicode="&#x456;" horiz-adv-x="585" d="M113 1239q0 80 55 127q53 47 131 47q70 0 121 -47q53 -49 53 -127q0 -86 -53 -139q-51 -47 -121 -47q-80 0 -131 47q-55 51 -55 139zM139 0v922h307v-922h-307z" />
<glyph unicode="&#x457;" horiz-adv-x="690" d="M31 1200q0 66 45 107q41 39 106 39q55 0 97 -39q43 -41 43 -107q0 -70 -43 -113q-41 -41 -97 -40q-66 0 -106 40q-45 41 -45 113zM190 0v922h308v-922h-308zM369 1200q0 66 45 107q43 39 106 39q57 0 96 -39q43 -41 43 -107q0 -70 -43 -113q-39 -41 -96 -40 q-63 0 -106 40q-45 41 -45 113z" />
<glyph unicode="&#x458;" horiz-adv-x="575" d="M-72 -356l80 243q47 -27 90 -26q57 0 58 100v961h307v-990q0 -358 -289 -358q-172 0 -246 70zM131 1239q0 80 55 127q53 47 131 47q70 0 121 -47q53 -49 54 -127q0 -86 -54 -139q-51 -47 -121 -47q-80 0 -131 47q-55 51 -55 139z" />
<glyph unicode="&#x459;" horiz-adv-x="1521" d="M41 274q174 -20 192 361l15 287h756v-215h57q223 0 332 -105q88 -86 88 -227q0 -156 -101 -256q-117 -119 -342 -119h-342v614h-161l-5 -41q-35 -354 -133 -479q-96 -119 -329 -119zM1004 266h28q121 0 121 96q0 98 -119 99h-30v-195z" />
<glyph unicode="&#x45a;" horiz-adv-x="1542" d="M113 0v922h307v-318h297v318h307v-215h57q223 0 332 -105q88 -86 88 -227q0 -156 -100 -256q-117 -119 -342 -119h-342v317h-297v-317h-307zM1024 266h29q121 0 121 96q0 98 -119 99h-31v-195z" />
<glyph unicode="&#x45b;" horiz-adv-x="1196" d="M20 829v246h216v359h307v-359h278v-246h-278v-176q90 80 227 80q375 0 375 -397v-336h-307v297q0 68 -41 109t-107 40q-88 0 -147 -59v-387h-307v829h-216z" />
<glyph unicode="&#x45c;" horiz-adv-x="1091" d="M113 0v922h307v-426l250 426h385l-299 -439l344 -483h-398l-282 430v-430h-307zM373 1159l211 352l239 -182l-268 -299z" />
<glyph unicode="&#x45e;" horiz-adv-x="1056" d="M0 922h371l157 -422q12 -33 35 -127q8 82 23 129l121 420h350l-359 -922q-98 -242 -178 -328q-76 -82 -184 -82q-117 0 -219 86l98 232q49 -33 88 -33q57 0 88 76l21 49zM195 1372h266q0 -119 86 -119q78 0 78 119h266q0 -152 -86 -246q-92 -102 -258 -102 q-180 0 -271 102q-82 90 -81 246z" />
<glyph unicode="&#x45f;" horiz-adv-x="1105" d="M113 0v922h307v-635h266v635h307v-922h-297v-225h-286v225h-297z" />
<glyph unicode="&#x462;" horiz-adv-x="1345" d="M41 1004v307h225v123h328v-123h280v-307h-280v-101q68 8 127 8q543 0 543 -442q0 -473 -613 -473l-385 4v1004h-225zM594 311q74 -8 96 -8q117 0 162 25q63 33 63 133q0 92 -65 123q-45 20 -158 20q-30 0 -98 -10v-283z" />
<glyph unicode="&#x463;" horiz-adv-x="1079" d="M20 676v246h216v512h307v-512h254v-246h-254v-51h75q420 0 420 -291q0 -150 -100 -236q-113 -98 -342 -98h-360v676h-216zM543 246h47q121 0 121 76q0 78 -119 77h-49v-153z" />
<glyph unicode="&#x472;" horiz-adv-x="1687" d="M82 717q0 317 209 526q215 215 553 215q334 0 545 -198q217 -207 217 -543q0 -324 -217 -533q-215 -209 -545 -209q-334 0 -545 199q-217 207 -217 543zM455 567q43 -127 149 -205q106 -80 240 -79q313 0 393 286q-109 -49 -186 -49q-86 0 -207 68q-123 68 -189 67 q-94 0 -200 -88zM457 885q111 57 198 57q86 0 213 -68t205 -67q82 0 162 61q-41 129 -148 207q-106 76 -243 76q-291 0 -387 -266z" />
<glyph unicode="&#x473;" horiz-adv-x="1187" d="M61 461q1 213 142 346q145 139 391 139t393 -139q139 -133 139 -346t-139 -346q-147 -139 -393 -140q-246 0 -391 140q-141 133 -142 346zM385 358q47 -137 209 -137q164 0 209 137q-55 -43 -119 -43q-61 0 -121 43q-59 41 -88 41q-49 0 -90 -41zM385 565q57 39 102 39 q63 0 138 -41q74 -43 98 -43q53 0 82 33q-47 147 -211 147q-158 0 -209 -135z" />
<glyph unicode="&#x474;" horiz-adv-x="1359" d="M-20 1434h350l360 -947l230 676q63 182 151 244q113 80 330 27l-43 -287q-74 25 -111 -12q-29 -27 -63 -121l-379 -1014h-252z" />
<glyph unicode="&#x475;" horiz-adv-x="1021" d="M-20 922h364l119 -291q41 -98 61 -213q16 96 60 215l22 61q57 156 137 207q106 68 320 17l-43 -287q-74 25 -113 -8q-27 -25 -65 -115l-213 -508h-232z" />
<glyph unicode="&#x490;" horiz-adv-x="1044" d="M184 0v1434h512v225h308v-533h-492v-1126h-328z" />
<glyph unicode="&#x491;" horiz-adv-x="788" d="M113 0v922h368v184h287v-471h-348v-635h-307z" />
<glyph unicode="&#x1e9e;" horiz-adv-x="1441" d="M184 0v920q0 539 518 538q338 0 541 -307l-272 -326q154 -68 252 -182q117 -135 116 -295q0 -166 -127 -274q-115 -98 -258 -99q-231 0 -379 136l140 258q102 -86 166 -86q111 0 110 116q0 82 -127 170q-61 41 -282 156l266 350q-37 76 -160 76q-176 0 -176 -205v-946 h-328z" />
<glyph unicode="&#x2000;" horiz-adv-x="957" />
<glyph unicode="&#x2001;" horiz-adv-x="1915" />
<glyph unicode="&#x2002;" horiz-adv-x="957" />
<glyph unicode="&#x2003;" horiz-adv-x="1915" />
<glyph unicode="&#x2004;" horiz-adv-x="638" />
<glyph unicode="&#x2005;" horiz-adv-x="478" />
<glyph unicode="&#x2006;" horiz-adv-x="319" />
<glyph unicode="&#x2007;" horiz-adv-x="319" />
<glyph unicode="&#x2008;" horiz-adv-x="239" />
<glyph unicode="&#x2009;" horiz-adv-x="383" />
<glyph unicode="&#x200a;" horiz-adv-x="106" />
<glyph unicode="&#x2010;" horiz-adv-x="745" d="M102 420v287h541v-287h-541z" />
<glyph unicode="&#x2011;" horiz-adv-x="745" d="M102 420v287h541v-287h-541z" />
<glyph unicode="&#x2012;" horiz-adv-x="1236" d="M164 592v266h909v-266h-909z" />
<glyph unicode="&#x2013;" horiz-adv-x="1236" d="M164 420v266h909v-266h-909z" />
<glyph unicode="&#x2014;" horiz-adv-x="1687" d="M164 420v266h1360v-266h-1360z" />
<glyph unicode="&#x2015;" horiz-adv-x="1687" d="M164 420v266h1360v-266h-1360z" />
<glyph unicode="&#x2018;" horiz-adv-x="497" d="M61 1190q0 260 232 397l143 -129q-88 -82 -88 -201q0 -84 49 -133l-258 -149q-78 82 -78 215z" />
<glyph unicode="&#x2019;" horiz-adv-x="497" d="M61 1094q88 82 89 200q0 84 -50 133l258 150q78 -82 78 -215q0 -260 -231 -397z" />
<glyph unicode="&#x201a;" horiz-adv-x="497" d="M61 -268q88 82 89 200q0 84 -50 134l258 149q78 -82 78 -215q0 -260 -231 -397z" />
<glyph unicode="&#x201c;" horiz-adv-x="866" d="M61 1190q0 260 232 397l143 -129q-88 -82 -88 -201q0 -84 49 -133l-258 -149q-78 82 -78 215zM430 1190q0 260 232 397l143 -129q-88 -82 -88 -201q0 -84 49 -133l-258 -149q-78 82 -78 215z" />
<glyph unicode="&#x201d;" horiz-adv-x="866" d="M61 1094q88 82 89 200q0 84 -50 133l258 150q78 -82 78 -215q0 -260 -231 -397zM430 1094q88 82 88 200q0 84 -49 133l258 150q78 -82 78 -215q0 -260 -232 -397z" />
<glyph unicode="&#x201e;" horiz-adv-x="866" d="M61 -268q88 82 89 200q0 84 -50 134l258 149q78 -82 78 -215q0 -260 -231 -397zM430 -268q88 82 88 200q0 84 -49 134l258 149q78 -82 78 -215q0 -260 -232 -397z" />
<glyph unicode="&#x2020;" horiz-adv-x="1073" d="M82 778v266h311v390h287v-390h311v-266h-311v-983h-287v983h-311z" />
<glyph unicode="&#x2021;" horiz-adv-x="1073" d="M82 246v266h311v266h-311v266h311v390h287v-390h311v-266h-311v-266h311v-266h-311v-451h-287v451h-311z" />
<glyph unicode="&#x2022;" horiz-adv-x="696" d="M41 545q0 125 90 217q90 90 215 90q127 0 217 -90q92 -92 92 -217t-92 -215q-92 -92 -217 -92t-215 92q-90 90 -90 215z" />
<glyph unicode="&#x2026;" horiz-adv-x="1794" d="M82 197q0 74 55 131q59 61 154 61q82 0 139 -61q53 -57 53 -131q0 -84 -53 -146q-55 -63 -139 -63q-94 0 -154 63q-55 59 -55 146zM696 197q1 74 56 131q59 61 153 61q82 0 139 -61q53 -57 54 -131q0 -84 -54 -146q-55 -63 -139 -63q-94 0 -153 63q-55 59 -56 146z M1311 197q0 74 55 131q59 61 154 61q82 0 139 -61q53 -57 53 -131q0 -84 -53 -146q-55 -63 -139 -63q-94 0 -154 63q-55 59 -55 146z" />
<glyph unicode="&#x202f;" horiz-adv-x="383" />
<glyph unicode="&#x2030;" horiz-adv-x="2848" d="M61 1077q0 175 121 279q121 102 312 102q190 0 311 -102q121 -104 121 -279q0 -174 -121 -280q-121 -104 -311 -105q-190 0 -312 105q-121 106 -121 280zM348 1077q1 -139 146 -139t145 139q0 135 -145 135t-146 -135zM369 96l1017 1362l173 -129l-1014 -1354zM1010 360 q-1 175 120 279q121 102 312 102q190 0 311 -102q121 -104 121 -279q0 -174 -121 -280q-121 -104 -311 -105q-190 0 -312 105q-121 106 -120 280zM1296 360q1 -139 146 -139t145 139q0 135 -145 136q-145 0 -146 -136zM1923 360q0 175 121 279q121 102 311 102t311 -102 q121 -104 121 -279q0 -174 -121 -280q-121 -104 -311 -105q-190 0 -311 105q-121 106 -121 280zM2210 360q0 -139 145 -139t146 139q0 135 -146 136q-145 0 -145 -136z" />
<glyph unicode="&#x2039;" horiz-adv-x="741" d="M61 508v8l420 481l199 -178l-264 -307l264 -311l-209 -174z" />
<glyph unicode="&#x203a;" horiz-adv-x="741" d="M61 201l265 311l-265 307l199 178l420 -481v-8l-410 -481z" />
<glyph unicode="&#x2044;" horiz-adv-x="452" d="M-369 96l1018 1362l172 -129l-1014 -1354z" />
<glyph unicode="&#x205f;" horiz-adv-x="478" />
<glyph unicode="&#x20ac;" d="M35 788l94 246h152q170 424 661 424q160 0 266 -57l-116 -281q-57 31 -154 31q-164 0 -266 -117h397l-92 -246h-402q-4 -45 -4 -71q0 -35 2 -51h365l-82 -246h-182q115 -137 301 -137q104 0 158 24l51 -297q-119 -35 -236 -35q-238 0 -416 119q-180 119 -258 326h-235 l92 246h94q-2 16 -2 51q0 47 2 71h-190z" />
<glyph unicode="&#x20b4;" d="M129 430v246h266l117 123h-383v245h571q0 106 -102 107q-109 0 -201 -76l-155 232q129 152 376 151q174 0 283 -92q106 -92 107 -238q0 -63 -13 -84h105v-245h-252q-98 -113 -111 -123h363v-246h-580q-8 -25 -8 -45q0 -102 145 -102q121 0 238 94l160 -209 q-154 -193 -441 -193q-158 0 -278 93q-131 100 -131 262q0 51 16 100h-92z" />
<glyph unicode="&#x20b6;" d="M14 219v246h185v123h-185v246h185v600l438 4q580 0 580 -434q0 -193 -142 -304q-141 -113 -389 -112h-160v-123h316v-246h-316v-219h-327v219h-185zM526 834h150q193 0 192 141q0 156 -198 155l-144 -4v-292z" />
<glyph unicode="&#x20ce;" d="M14 219v246h185v123h-185v246h185v600l438 4q580 0 580 -434q0 -193 -142 -304q-141 -113 -389 -112h-160v-123h316v-246h-316v-219h-327v219h-185zM526 834h150q193 0 192 141q0 156 -198 155l-144 -4v-292z" />
<glyph unicode="&#x20cd;" d="M14 219v246h185v123h-185v246h185v600l438 4q580 0 580 -434q0 -193 -142 -304q-141 -113 -389 -112h-160v-123h316v-246h-316v-219h-327v219h-185zM526 834h150q193 0 192 141q0 156 -198 155l-144 -4v-292z" />
<glyph unicode="&#x20cc;" d="M14 219v246h185v123h-185v246h185v600l438 4q580 0 580 -434q0 -193 -142 -304q-141 -113 -389 -112h-160v-123h316v-246h-316v-219h-327v219h-185zM526 834h150q193 0 192 141q0 156 -198 155l-144 -4v-292z" />
<glyph unicode="&#x20cb;" d="M14 219v246h185v123h-185v246h185v600l438 4q580 0 580 -434q0 -193 -142 -304q-141 -113 -389 -112h-160v-123h316v-246h-316v-219h-327v219h-185zM526 834h150q193 0 192 141q0 156 -198 155l-144 -4v-292z" />
<glyph unicode="&#x20ca;" d="M14 219v246h185v123h-185v246h185v600l438 4q580 0 580 -434q0 -193 -142 -304q-141 -113 -389 -112h-160v-123h316v-246h-316v-219h-327v219h-185zM526 834h150q193 0 192 141q0 156 -198 155l-144 -4v-292z" />
<glyph unicode="&#x20c9;" d="M14 219v246h185v123h-185v246h185v600l438 4q580 0 580 -434q0 -193 -142 -304q-141 -113 -389 -112h-160v-123h316v-246h-316v-219h-327v219h-185zM526 834h150q193 0 192 141q0 156 -198 155l-144 -4v-292z" />
<glyph unicode="&#x20c8;" d="M14 219v246h185v123h-185v246h185v600l438 4q580 0 580 -434q0 -193 -142 -304q-141 -113 -389 -112h-160v-123h316v-246h-316v-219h-327v219h-185zM526 834h150q193 0 192 141q0 156 -198 155l-144 -4v-292z" />
<glyph unicode="&#x20c7;" d="M14 219v246h185v123h-185v246h185v600l438 4q580 0 580 -434q0 -193 -142 -304q-141 -113 -389 -112h-160v-123h316v-246h-316v-219h-327v219h-185zM526 834h150q193 0 192 141q0 156 -198 155l-144 -4v-292z" />
<glyph unicode="&#x20c6;" d="M14 219v246h185v123h-185v246h185v600l438 4q580 0 580 -434q0 -193 -142 -304q-141 -113 -389 -112h-160v-123h316v-246h-316v-219h-327v219h-185zM526 834h150q193 0 192 141q0 156 -198 155l-144 -4v-292z" />
<glyph unicode="&#x20c5;" d="M14 219v246h185v123h-185v246h185v600l438 4q580 0 580 -434q0 -193 -142 -304q-141 -113 -389 -112h-160v-123h316v-246h-316v-219h-327v219h-185zM526 834h150q193 0 192 141q0 156 -198 155l-144 -4v-292z" />
<glyph unicode="&#x20c4;" d="M14 219v246h185v123h-185v246h185v600l438 4q580 0 580 -434q0 -193 -142 -304q-141 -113 -389 -112h-160v-123h316v-246h-316v-219h-327v219h-185zM526 834h150q193 0 192 141q0 156 -198 155l-144 -4v-292z" />
<glyph unicode="&#x20c3;" d="M14 219v246h185v123h-185v246h185v600l438 4q580 0 580 -434q0 -193 -142 -304q-141 -113 -389 -112h-160v-123h316v-246h-316v-219h-327v219h-185zM526 834h150q193 0 192 141q0 156 -198 155l-144 -4v-292z" />
<glyph unicode="&#x20c2;" d="M14 219v246h185v123h-185v246h185v600l438 4q580 0 580 -434q0 -193 -142 -304q-141 -113 -389 -112h-160v-123h316v-246h-316v-219h-327v219h-185zM526 834h150q193 0 192 141q0 156 -198 155l-144 -4v-292z" />
<glyph unicode="&#x20c1;" d="M14 219v246h185v123h-185v246h185v600l438 4q580 0 580 -434q0 -193 -142 -304q-141 -113 -389 -112h-160v-123h316v-246h-316v-219h-327v219h-185zM526 834h150q193 0 192 141q0 156 -198 155l-144 -4v-292z" />
<glyph unicode="&#x20c0;" d="M14 219v246h185v123h-185v246h185v600l438 4q580 0 580 -434q0 -193 -142 -304q-141 -113 -389 -112h-160v-123h316v-246h-316v-219h-327v219h-185zM526 834h150q193 0 192 141q0 156 -198 155l-144 -4v-292z" />
<glyph unicode="&#x20bf;" d="M14 219v246h185v123h-185v246h185v600l438 4q580 0 580 -434q0 -193 -142 -304q-141 -113 -389 -112h-160v-123h316v-246h-316v-219h-327v219h-185zM526 834h150q193 0 192 141q0 156 -198 155l-144 -4v-292z" />
<glyph unicode="&#x20be;" d="M14 219v246h185v123h-185v246h185v600l438 4q580 0 580 -434q0 -193 -142 -304q-141 -113 -389 -112h-160v-123h316v-246h-316v-219h-327v219h-185zM526 834h150q193 0 192 141q0 156 -198 155l-144 -4v-292z" />
<glyph unicode="&#x20bd;" d="M14 219v246h185v123h-185v246h185v600l438 4q580 0 580 -434q0 -193 -142 -304q-141 -113 -389 -112h-160v-123h316v-246h-316v-219h-327v219h-185zM526 834h150q193 0 192 141q0 156 -198 155l-144 -4v-292z" />
<glyph unicode="&#x20bc;" d="M14 219v246h185v123h-185v246h185v600l438 4q580 0 580 -434q0 -193 -142 -304q-141 -113 -389 -112h-160v-123h316v-246h-316v-219h-327v219h-185zM526 834h150q193 0 192 141q0 156 -198 155l-144 -4v-292z" />
<glyph unicode="&#x20bb;" d="M14 219v246h185v123h-185v246h185v600l438 4q580 0 580 -434q0 -193 -142 -304q-141 -113 -389 -112h-160v-123h316v-246h-316v-219h-327v219h-185zM526 834h150q193 0 192 141q0 156 -198 155l-144 -4v-292z" />
<glyph unicode="&#x20ba;" d="M14 219v246h185v123h-185v246h185v600l438 4q580 0 580 -434q0 -193 -142 -304q-141 -113 -389 -112h-160v-123h316v-246h-316v-219h-327v219h-185zM526 834h150q193 0 192 141q0 156 -198 155l-144 -4v-292z" />
<glyph unicode="&#x20b9;" d="M14 219v246h185v123h-185v246h185v600l438 4q580 0 580 -434q0 -193 -142 -304q-141 -113 -389 -112h-160v-123h316v-246h-316v-219h-327v219h-185zM526 834h150q193 0 192 141q0 156 -198 155l-144 -4v-292z" />
<glyph unicode="&#x20b7;" d="M14 219v246h185v123h-185v246h185v600l438 4q580 0 580 -434q0 -193 -142 -304q-141 -113 -389 -112h-160v-123h316v-246h-316v-219h-327v219h-185zM526 834h150q193 0 192 141q0 156 -198 155l-144 -4v-292z" />
<glyph unicode="&#x2122;" horiz-adv-x="1810" d="M41 1157v277h672v-277h-193v-369h-287v369h-192zM772 788v646h258l217 -158l201 158h250v-646h-289v285l-168 -127h-4l-176 127v-285h-289z" />
<glyph unicode="&#x25fc;" horiz-adv-x="921" d="M0 0v922h922v-922h-922z" />
</font>
</defs>
</svg>
